<svg id="Layer_1" data-name="Layer 1" xmlns="http://www.w3.org/2000/svg" viewBox="0 0 61.85 58.68"><defs><style>.cls-1{fill:#fff;}</style></defs><title>logo - small</title><path class="cls-1" d="M33.93,61.67A36.83,36.83,0,0,0,35.18,56a39.37,39.37,0,0,0,.19-9.28c-.42-3.86-.63-5.8-.92-7a5.65,5.65,0,0,1-.18-1.42,11.14,11.14,0,0,1,.8-3.26,2.63,2.63,0,0,1,.11-.29,11.44,11.44,0,0,0,4.24-3.64,11.27,11.27,0,0,0,2-6.32A11.78,11.78,0,0,0,39.6,18.4a10.12,10.12,0,0,0-2.87-2.91,1.32,1.32,0,0,1-.55-.34L36.06,15l4.71-6.82L35.18,12.4c-.13.09-.58.43-.77.29s.24-1.09.44-2.84A10.25,10.25,0,0,1,35,8.76a16.12,16.12,0,0,1,.89-2.1,7.86,7.86,0,0,0,.34-1.13L31,12l.08-6a54.2,54.2,0,0,0-2.5,5.71,1,1,0,0,1-.32.59.71.71,0,0,1-.17.09l-.42-7.8c-.54,4-.78,5.47-.74,5.74,0,0,.07.32,0,.37s-.09,0-.13,0l-1-1.55-.93-3.52a19.5,19.5,0,0,0-.26,4.27,4.32,4.32,0,0,1-.08,1.67c0,.12,0,.2-.07.26l-.76-1.42c.9,2.27.81,2.88.58,3a.33.33,0,0,1-.25,0L22.63,10.3a7,7,0,0,1,0,1c0,.57,0,1.29-.18,1.32s-.57-2.15-2-4.9c-.15-.28-.28-.51-.37-.66.88,3.63,1.5,5.84,2,7.26.07.21.24.75.13.81s-1.52-1.78-2.75-3.61a20.24,20.24,0,0,0-3.16-4c-.18-.17-.33-.31-.44-.4l5.52,9.13a2.16,2.16,0,0,1,.28.62c0,.11.05.19.06.25a7.77,7.77,0,0,1-2.17-.87c-.56-.33-.91-.64-2.21-1.51l-.69-.45a21.5,21.5,0,0,0,3.76,3.58l.36.27a11.57,11.57,0,0,0-2.09,6.2A11.71,11.71,0,0,0,22,32.65,11.44,11.44,0,0,0,29.4,36h.14a5.3,5.3,0,0,0,1,2,3.28,3.28,0,0,1,.67,1l0,.12c.17.77.37,1.85.56,3.15a56.66,56.66,0,0,1,.47,6.87,39.12,39.12,0,0,1-.2,6.43,29,29,0,0,1-1.29,5.52,1.55,1.55,0,0,0-.06.74A1.8,1.8,0,0,0,31.56,63a1.65,1.65,0,0,0,1.32.09l.2-.09a1.45,1.45,0,0,0,.63-.75Z" transform="translate(-4 -4.54)"/><path class="cls-1" d="M36.54,50.22a13,13,0,0,1,1.12-2.16,8.76,8.76,0,0,0,1.09-4,12.29,12.29,0,0,0-.47-4.78,1.92,1.92,0,0,0,.28.13,5.7,5.7,0,0,0,5.08-.78c2.78-1.9,2.56-5.63,2.54-5.78l.24.07a16.6,16.6,0,0,0,3,.68A6.05,6.05,0,0,0,52.59,33a5.71,5.71,0,0,0,2.83-4.07,4.68,4.68,0,0,0,0-1l.11.12a3.51,3.51,0,0,1,.34.5A7.19,7.19,0,0,0,57.3,30a6.37,6.37,0,0,0,3.33,1.13,14.3,14.3,0,0,0,2.79-.1c.81-.07,1.62-.15,2.09-.22l-.9.22c-.68.15-1.18.24-1.25.25A30.51,30.51,0,0,0,57,33.47a45.93,45.93,0,0,0-7,4,51.63,51.63,0,0,0-8.07,7.22,41,41,0,0,0-4.29,5.12c-.59.85-1.05,1.44-1.36,2l-.2.3a5.33,5.33,0,0,1,.13-.72A8,8,0,0,1,36.54,50.22Z" transform="translate(-4 -4.54)"/><path class="cls-1" d="M65.85,31.06c-.51.1-1.25.26-2.13.5a39.63,39.63,0,0,0-12.31,5.83A61.29,61.29,0,0,0,36.58,52.16l.86-.77a37.61,37.61,0,0,0,2.66-2.73,22.32,22.32,0,0,1,7.34-4.94,9.41,9.41,0,0,1,2.9-.8A8.56,8.56,0,0,1,54,43.4q0-.16,0-.45c.06-.88.15-2,.18-2.28A6.39,6.39,0,0,1,55.4,37.8a6.63,6.63,0,0,1,4-2.25A7.81,7.81,0,0,1,63,35.7c0-.07,0-.17,0-.29a9.14,9.14,0,0,1,0-1.69c.15-1.06,1.47-1.91,1.77-2.1Z" transform="translate(-4 -4.54)"/><path class="cls-1" d="M30.76,54.69a14.55,14.55,0,0,0-.85-2.28,8.58,8.58,0,0,1-.6-4.08,12.32,12.32,0,0,1,1.05-4.68l-.3.1a5.68,5.68,0,0,1-4.94-1.4c-2.53-2.22-1.85-5.9-1.82-6.05l-.25,0a16.07,16.07,0,0,1-3.11.31,6,6,0,0,1-3-1.06,5.65,5.65,0,0,1-2.31-4.38,5.38,5.38,0,0,1,.08-1l-.12.11a4.59,4.59,0,0,0-.4.45A7,7,0,0,1,12.62,32a6.34,6.34,0,0,1-3.44.72,14.14,14.14,0,0,1-2.76-.44c-.8-.17-1.59-.35-2-.47l.87.33c.65.23,1.14.38,1.21.4a30.28,30.28,0,0,1,6.05,3A45.09,45.09,0,0,1,19,40.39a51.4,51.4,0,0,1,7.13,8.15,41.68,41.68,0,0,1,3.63,5.6c.48.91.87,1.56,1.12,2.11l.16.32a6.89,6.89,0,0,0,0-.72A8.48,8.48,0,0,0,30.76,54.69Z" transform="translate(-4 -4.54)"/><path class="cls-1" d="M4,32.1c.49.16,1.21.41,2.05.76a39.76,39.76,0,0,1,11.51,7.28A61.43,61.43,0,0,1,30.48,56.61c-.16-.18-.44-.49-.76-.87a37.48,37.48,0,0,1-2.31-3,22.17,22.17,0,0,0-6.68-5.8A9.09,9.09,0,0,0,18,45.77a8.52,8.52,0,0,0-3.65,0q0-.16,0-.45c.05-.89.1-2,.1-2.28a6.37,6.37,0,0,0-.88-3,6.55,6.55,0,0,0-3.67-2.72,7.66,7.66,0,0,0-3.6-.29c0-.07,0-.17.07-.29a8.59,8.59,0,0,0,.2-1.68c0-1.06-1.22-2.07-1.5-2.3Z" transform="translate(-4 -4.54)"/></svg>