<?xml version="1.0" encoding="utf-8"?>
<!-- Generator: Adobe Illustrator 24.0.1, SVG Export Plug-In . SVG Version: 6.00 Build 0)  -->
<svg version="1.1" id="Layer_1" xmlns="http://www.w3.org/2000/svg" xmlns:xlink="http://www.w3.org/1999/xlink" x="0px" y="0px"
	 viewBox="0 0 400 150" style="enable-background:new 0 0 400 150;" xml:space="preserve">
<style type="text/css">
	.st0{fill:#FFFFFF;}
	.st1{fill:none;stroke:#FFFFFF;stroke-width:4;stroke-miterlimit:10;}
</style>
<g>
	<path class="st0" d="M144,72.2l-4-3c-2.5-1.9-4.3-3.7-5.4-5.5c-1.1-1.8-1.6-3.9-1.6-6.3c0-3.5,1-6.4,3-8.6c2-2.2,4.6-3.3,7.9-3.3
		c3.1,0,5.9,1.1,8.5,3.2v7.3c-2.7-3.1-5.5-4.7-8.6-4.7c-1.7,0-3.1,0.5-4.3,1.5s-1.7,2.2-1.7,3.7c0,1.4,0.4,2.6,1.2,3.8
		c0.8,1.2,2.1,2.4,3.9,3.7l4,2.9c4.5,3.3,6.8,7.5,6.8,12.5c0,3.6-1,6.6-3,8.8c-2,2.3-4.6,3.4-7.7,3.4c-3.6,0-7-1.4-10-4.1v-8.2
		c2.9,4.4,6.2,6.6,9.9,6.6c1.7,0,3-0.6,4.1-1.7c1.1-1.1,1.7-2.5,1.7-4.2C148.9,77.2,147.2,74.6,144,72.2z"/>
	<path class="st0" d="M159,46h4.8V91H159V46z M174.8,61.4h5.7l-10.4,14.5L182.6,91h-6.5L164,75.9L174.8,61.4z"/>
	<path class="st0" d="M194.9,61.3c3.7,0,6.8,1.5,9.2,4.4c2.4,2.9,3.7,6.6,3.7,11c0,4.3-1.2,7.8-3.7,10.7c-2.5,2.8-5.6,4.2-9.4,4.2
		c-3.6,0-6.7-1.4-9.1-4.3c-2.4-2.9-3.7-6.5-3.7-10.8c0-4.3,1.2-8,3.7-10.9C188.1,62.7,191.2,61.3,194.9,61.3z M194.7,66.6
		c-2.3,0-4.2,0.9-5.7,2.8c-1.5,1.9-2.2,4.2-2.2,7.1c0,2.8,0.8,5.2,2.3,7c1.5,1.8,3.5,2.7,5.8,2.7c2.4,0,4.3-0.9,5.8-2.7
		c1.5-1.8,2.3-4.1,2.3-7c0-2.8-0.8-5.2-2.4-7C199,67.5,197,66.6,194.7,66.6z"/>
	<path class="st0" d="M209.8,66.1l9-10.8v6.1h7.7v5.3h-7.7v14.5c0,3.4,1.2,5.1,3.5,5.1c1.7,0,3.6-0.7,5.5-2.1v5.5
		c-1.9,1.3-3.9,1.9-6.1,1.9c-2.2,0-4-0.8-5.5-2.4c-0.5-0.5-0.8-1-1.1-1.6c-0.3-0.6-0.6-1.4-0.8-2.3c-0.2-1-0.3-2.8-0.3-5.5V66.6
		h-4.2V66.1z"/>
	<path class="st0" d="M227.8,66.1l9-10.8v6.1h7.7v5.3h-7.7v14.5c0,3.4,1.2,5.1,3.5,5.1c1.7,0,3.6-0.7,5.5-2.1v5.5
		c-1.9,1.3-3.9,1.9-6.1,1.9c-2.2,0-4-0.8-5.5-2.4c-0.5-0.5-0.8-1-1.1-1.6c-0.3-0.6-0.6-1.4-0.8-2.3c-0.2-1-0.3-2.8-0.3-5.5V66.6
		h-4.2V66.1z"/>
	<path class="st0" d="M269.9,76.7h-17.1c0.1,2.8,0.9,5.1,2.3,6.8c1.4,1.7,3.3,2.5,5.6,2.5c3.2,0,6.1-1.2,8.8-3.6v5.7
		c-1.5,1.2-2.9,2.1-4.4,2.6c-1.5,0.5-3.2,0.8-5.1,0.8c-2.7,0-4.8-0.7-6.5-2c-1.7-1.4-3-3.2-4-5.5c-1-2.3-1.5-4.9-1.5-8
		c0-4.5,1-8.2,3.1-11c2.1-2.8,4.8-4.2,8.2-4.2c3.2,0,5.8,1.4,7.7,4.1c1.9,2.8,2.9,6.4,2.9,11.1V76.7z M252.9,73.2h12.2
		c-0.1-2.3-0.7-4.2-1.7-5.4c-1-1.3-2.4-1.9-4.1-1.9c-1.7,0-3.1,0.6-4.2,1.9C254,69,253.3,70.9,252.9,73.2z"/>
	<path class="st0" d="M296.7,46h6.6l-16,21.4l20,23.7H300l-18.9-22.3V91h-5.3V46h5.3v20.6L296.7,46z"/>
	<path class="st0" d="M315.4,61.4v3.8c2.1-2.9,4.6-4.4,7.3-4.4c1.5,0,2.9,0.5,4.2,1.4c1.3,1,2.3,2.3,3,3.9c0.7,1.7,1,4.3,1,7.9v17
		h-4.8V74.1c0-3-0.4-5.2-1.1-6.5c-0.8-1.3-2-2-3.8-2c-2.3,0-4.2,1.4-5.8,4.2V91h-4.9V61.4H315.4z"/>
	<path class="st0" d="M340.2,48.9c0.8,0,1.5,0.3,2,1c0.6,0.7,0.8,1.5,0.8,2.5c0,0.9-0.3,1.8-0.8,2.5c-0.6,0.7-1.2,1-2,1
		c-0.7,0-1.4-0.3-2-1c-0.6-0.7-0.8-1.5-0.8-2.4c0-0.9,0.3-1.7,0.8-2.4C338.8,49.2,339.4,48.9,340.2,48.9z M337.8,61.4h4.8V91h-4.8
		V61.4z"/>
	<path class="st0" d="M364.5,61.4h5.2l-10.7,30.2h-1.6l-11-30.2h5.3l6.6,18.3L364.5,61.4z"/>
	<path class="st0" d="M392.9,76.7h-17.1c0.1,2.8,0.9,5.1,2.3,6.8s3.3,2.5,5.6,2.5c3.2,0,6.1-1.2,8.8-3.6v5.7
		c-1.5,1.2-2.9,2.1-4.4,2.6c-1.5,0.5-3.2,0.8-5.1,0.8c-2.7,0-4.8-0.7-6.5-2c-1.7-1.4-3-3.2-4-5.5c-1-2.3-1.5-4.9-1.5-8
		c0-4.5,1-8.2,3.1-11c2.1-2.8,4.8-4.2,8.2-4.2c3.2,0,5.8,1.4,7.7,4.1c1.9,2.8,2.9,6.4,2.9,11.1V76.7z M375.9,73.2h12.2
		c-0.1-2.3-0.7-4.2-1.7-5.4c-1-1.3-2.4-1.9-4.1-1.9c-1.7,0-3.1,0.6-4.2,1.9C377,69,376.3,70.9,375.9,73.2z"/>
</g>
<g>
	<path class="st0" d="M58.1,128.5c0.8-2.6,1.7-6.2,2.3-10.6c1.2-8.7,0.5-15.7,0.4-17.3C60,93.5,59.6,89.9,59,87.5
		c-0.1-0.6-0.4-1.5-0.3-2.6c0-1.9,0.7-3.7,1.5-6.1c0.1-0.2,0.1-0.4,0.2-0.6c1.7-0.9,5.2-2.8,7.9-6.8c3.3-4.8,3.7-9.6,3.8-11.8
		c0-0.9,0-6.7-3.4-11.8c-1.9-2.9-4.7-5.2-5.4-5.4c-0.1,0-0.6-0.2-1-0.6c-0.1-0.1-0.2-0.2-0.2-0.3l8.8-12.7
		c-4.6,3.5-8.2,6.2-10.4,7.9c-0.2,0.2-1.1,0.8-1.4,0.6c-0.5-0.4,0.5-2,0.8-5.3c0.2-1.3,0-1.3,0.2-2c0.3-1.5,1-2.1,1.7-3.9
		c0.2-0.5,0.4-1.2,0.6-2.1l-9.6,12.1l0.1-11.3c-3.3,7.2-4.6,10-4.7,10.7c0,0.1-0.1,0.8-0.6,1.1c-0.1,0.1-0.3,0.1-0.3,0.2L46.5,22
		c-1,7.4-1.5,10.2-1.4,10.7c0,0.1,0.1,0.6-0.1,0.7c-0.1,0-0.2,0-0.2-0.1l-1.9-2.9l-1.7-6.6c-0.6,5-0.6,7-0.5,8
		c0,0.3,0.3,1.6-0.1,3.1c-0.1,0.2-0.1,0.4-0.1,0.5l-1.4-2.6c1.7,4.2,1.5,5.4,1.1,5.7c-0.1,0.1-0.3,0.1-0.5,0.1L37,32.7
		c0.1,0.5,0.1,1.1,0.1,1.8c0,1.1-0.1,2.4-0.3,2.5c-0.5,0.1-1.1-4-3.8-9.1c-0.3-0.5-0.5-1-0.7-1.2c1.6,6.8,2.8,10.9,3.7,13.5
		c0.1,0.4,0.5,1.4,0.2,1.5c-0.4,0.2-2.8-3.3-5.1-6.7c-1.9-2.9-3.2-5-5.9-7.5c-0.3-0.3-0.6-0.6-0.8-0.7c5.8,9.5,9.9,16.5,10.3,17
		c0.1,0.1,0.3,0.5,0.5,1.2c0.1,0.2,0.1,0.4,0.1,0.5c-1.8-0.4-3.2-1.1-4-1.6c-1-0.6-1.7-1.2-4.1-2.8c-0.5-0.4-1-0.6-1.3-0.8
		c1.8,2.4,4.3,4.5,7,6.7c0.2,0.2,0.4,0.3,0.7,0.5c-1.2,1.7-3.7,5.8-3.9,11.6c0,1.1-0.2,9.2,6.1,15.5c0.6,0.6,6.3,6.2,13.9,6.2
		c0.1,0,0.2,0,0.2,0c0.8,2.3,1.4,3.3,1.8,3.7c0.1,0.2,0.8,0.8,1.2,1.8c0,0.1,0.1,0.2,0.1,0.2c0.3,1.4,0.7,3.5,1,5.9
		c0.2,1.1,0.8,5.6,0.9,12.8c0.1,5.5,0.1,8.3-0.4,12c-0.6,4.3-1.6,7.8-2.4,10.3c-0.2,0.4-0.2,0.9-0.1,1.4c0,0.2,0.3,1.6,1.6,2.3
		c0.2,0.1,1.2,0.6,2.5,0.2c0.1-0.1,0.3-0.1,0.4-0.2c0.5-0.3,1-0.8,1.2-1.4L58.1,128.5z"/>
	<path class="st0" d="M62.9,107.2c0.7-1.8,2-3.8,2.1-4c1.5-2.4,1.8-5,2-7.4c0.4-3.6-0.2-6.7-0.9-8.9c0.1,0.1,0.3,0.2,0.5,0.2
		c3.3,1.4,7.2,0.1,9.5-1.5c5.2-3.5,4.8-10.5,4.7-10.8c0.1,0,0.3,0.1,0.4,0.1c0.7,0.2,3.7,1.1,5.7,1.3c3,0.2,5.5-1.1,5.8-1.3
		c2.9-1.6,4.8-4.6,5.3-7.6c0.1-0.8,0.1-1.4,0.1-1.9c0,0,0.1,0.1,0.2,0.2c0.4,0.5,0.6,0.9,0.6,0.9c0.3,0.5,1.6,2,2.6,2.7
		c2.2,1.7,4.9,2,6.2,2.1c1.4,0.1,2.6,0,5.2-0.2c1.5-0.1,3-0.3,3.9-0.4c-0.4,0.1-1,0.3-1.7,0.4c-1.3,0.3-2.2,0.4-2.3,0.5
		c-0.9,0.2-5.4,1.2-11.9,4.2c-6.6,3-11.5,6.3-13.1,7.5c-6.3,4.4-10.2,8.5-15,13.5c-3.4,3.5-5.7,6.3-8,9.5c-1.1,1.6-2,2.7-2.5,3.6
		l-0.4,0.6c0-0.4,0.1-0.8,0.2-1.3C62.3,109.2,62.5,108.2,62.9,107.2z"/>
	<path class="st0" d="M117.6,71.5c-0.9,0.2-2.3,0.5-4,0.9c-11,2.9-18.5,7.9-23,10.9C76.4,92.8,66.5,106,63,110.8
		c0.3-0.3,0.9-0.8,1.6-1.4c2.6-2.4,4.4-4.4,5-5.1c4.9-5.4,12-8.5,13.7-9.2c2.4-1,3.9-1.4,5.4-1.5c2.9-0.3,5.3,0.4,6.7,0.9
		c0-0.2,0-0.5,0.1-0.8c0.1-1.7,0.3-3.7,0.3-4.2c0.3-2.7,2.1-5.1,2.3-5.4c2.5-3.2,6.2-3.9,7.4-4.2c2.9-0.6,5.3-0.1,6.7,0.3
		c0-0.1,0-0.3-0.1-0.6c-0.1-1.4-0.1-2.6,0-3.1c0.3-2,2.7-3.6,3.3-3.9L117.6,71.5z"/>
	<path class="st0" d="M52.2,115.5c-0.5-1.9-1.5-4.1-1.6-4.3c-1.2-2.6-1.2-5.2-1.1-7.6c0.1-3.7,1-6.7,2-8.7c-0.1,0-0.3,0.1-0.6,0.2
		c-3.4,0.9-7.1-0.8-9.2-2.6c-4.7-4.1-3.5-11-3.4-11.3c-0.1,0-0.3,0-0.5,0.1C37,81.4,34,82,32,81.9c-3-0.1-5.4-1.8-5.6-2
		c-2.7-2-4.2-5.2-4.3-8.2c0-0.8,0.1-1.4,0.1-1.9c0,0-0.1,0.1-0.2,0.2c-0.4,0.4-0.7,0.8-0.7,0.9c-0.3,0.5-1.8,1.7-2.9,2.4
		c-2.4,1.4-5.1,1.4-6.4,1.4c-1.4,0-2.6-0.3-5.2-0.8c-1.5-0.3-3-0.7-3.8-0.9c0.4,0.1,0.9,0.4,1.6,0.6c1.2,0.4,2.1,0.7,2.2,0.7
		c0.9,0.3,5.3,1.9,11.3,5.6c6.2,3.8,10.6,7.7,12,9c5.7,5.1,9.1,9.7,13.3,15.2c2.9,3.9,4.9,7,6.8,10.5c0.9,1.7,1.6,2.9,2.1,3.9
		l0.3,0.6c0-0.4,0-0.8-0.1-1.4C52.5,117.6,52.4,116.6,52.2,115.5z"/>
	<path class="st0" d="M2.3,73.4c0.9,0.3,2.2,0.8,3.8,1.4c10.6,4.3,17.4,10.1,21.5,13.6c13,11.2,21.3,25.5,24.1,30.7
		c-0.3-0.3-0.8-0.9-1.4-1.6c-2.3-2.8-3.8-4.9-4.3-5.6c-4.2-5.9-10.9-9.9-12.5-10.8c-2.3-1.3-3.8-1.8-5.2-2.1
		c-2.8-0.6-5.3-0.3-6.8,0.1c0-0.2,0-0.5,0-0.8c0.1-1.7,0.2-3.7,0.2-4.3c0-2.8-1.5-5.3-1.6-5.6c-2.1-3.5-5.6-4.7-6.8-5.1
		c-2.8-0.9-5.3-0.8-6.7-0.5c0-0.1,0.1-0.3,0.1-0.5C6.9,80.8,7,79.5,7,79c0-2-2.3-3.9-2.8-4.3L2.3,73.4z"/>
</g>
<line class="st1" x1="125" y1="22" x2="125" y2="135"/>
<g>
	<path class="st0" d="M140.9,101.8h1.7v11.6h-1.7v-5h-6.5v5h-1.7v-11.6h1.7v5h6.5V101.8z"/>
	<path class="st0" d="M150.3,108.8v3.2c0,0.3,0.1,0.4,0.3,0.4c0.2,0,0.5-0.1,0.9-0.4v0.9c-0.3,0.2-0.6,0.4-0.8,0.5
		c-0.2,0.1-0.4,0.1-0.7,0.1c-0.6,0-1-0.3-1.1-0.8c-0.6,0.5-1.3,0.7-2.1,0.7c-0.5,0-1-0.2-1.3-0.5s-0.5-0.8-0.5-1.3
		c0-0.5,0.2-0.9,0.5-1.3c0.3-0.4,0.8-0.7,1.5-0.9l1.9-0.7v-0.4c0-0.9-0.5-1.4-1.4-1.4c-0.8,0-1.6,0.4-2.4,1.3v-1.7
		c0.6-0.7,1.4-1,2.5-1c0.8,0,1.5,0.2,2,0.6c0.2,0.1,0.3,0.3,0.4,0.6s0.2,0.5,0.3,0.7C150.3,107.7,150.3,108.1,150.3,108.8z
		 M148.9,111.9v-2.3l-1,0.4c-0.5,0.2-0.9,0.4-1.1,0.6c-0.2,0.2-0.3,0.5-0.3,0.8c0,0.3,0.1,0.6,0.3,0.8c0.2,0.2,0.5,0.3,0.8,0.3
		C148,112.5,148.4,112.3,148.9,111.9z"/>
	<path class="st0" d="M154.9,105.7v1c0.7-0.7,1.4-1.1,2.3-1.1c0.5,0,0.9,0.1,1.3,0.4s0.7,0.6,0.9,1c0.2,0.4,0.3,1.1,0.3,2v4.4h-1.5
		V109c0-0.8-0.1-1.3-0.4-1.7s-0.6-0.5-1.2-0.5c-0.7,0-1.3,0.4-1.8,1.1v5.5h-1.5v-7.6H154.9z"/>
	<path class="st0" d="M167.7,101.8h1.5v11.6h-3.2c-1.1,0-2-0.4-2.7-1.1c-0.7-0.7-1-1.7-1-2.9c0-1.1,0.4-2,1.1-2.8
		c0.7-0.7,1.6-1.1,2.7-1.1c0.5,0,1.1,0.1,1.7,0.3V101.8z M167.7,112.1v-4.8c-0.5-0.2-0.9-0.4-1.4-0.4c-0.8,0-1.4,0.2-1.8,0.7
		c-0.4,0.5-0.7,1.2-0.7,2c0,0.8,0.2,1.4,0.6,1.8c0.2,0.3,0.5,0.4,0.7,0.5s0.7,0.1,1.4,0.1H167.7z"/>
	<path class="st0" d="M178.1,107.8v5.5h-1.5v-4.3c0-0.8-0.1-1.4-0.3-1.8s-0.6-0.5-1.2-0.5c-0.3,0-0.6,0.1-0.9,0.2
		c-0.3,0.1-0.6,0.4-0.9,0.8v5.5h-1.5v-7.6h1.5v1c0.8-0.8,1.5-1.2,2.3-1.2c1,0,1.7,0.5,2.2,1.4c0.8-0.9,1.7-1.4,2.5-1.4
		c0.7,0,1.4,0.3,1.8,0.8c0.5,0.5,0.7,1.4,0.7,2.5v4.5h-1.5v-4.5c0-0.6-0.1-1.1-0.4-1.5c-0.3-0.3-0.6-0.5-1.1-0.5
		C179.2,106.9,178.7,107.2,178.1,107.8z"/>
	<path class="st0" d="M190.4,108.8v3.2c0,0.3,0.1,0.4,0.3,0.4c0.2,0,0.5-0.1,0.9-0.4v0.9c-0.3,0.2-0.6,0.4-0.8,0.5
		c-0.2,0.1-0.4,0.1-0.7,0.1c-0.6,0-1-0.3-1.1-0.8c-0.6,0.5-1.3,0.7-2.1,0.7c-0.5,0-1-0.2-1.3-0.5s-0.5-0.8-0.5-1.3
		c0-0.5,0.2-0.9,0.5-1.3c0.3-0.4,0.8-0.7,1.5-0.9l1.9-0.7v-0.4c0-0.9-0.5-1.4-1.4-1.4c-0.8,0-1.6,0.4-2.4,1.3v-1.7
		c0.6-0.7,1.4-1,2.5-1c0.8,0,1.5,0.2,2,0.6c0.2,0.1,0.3,0.3,0.4,0.6s0.2,0.5,0.3,0.7C190.4,107.7,190.4,108.1,190.4,108.8z
		 M188.9,111.9v-2.3l-1,0.4c-0.5,0.2-0.9,0.4-1.1,0.6c-0.2,0.2-0.3,0.5-0.3,0.8c0,0.3,0.1,0.6,0.3,0.8c0.2,0.2,0.5,0.3,0.8,0.3
		C188,112.5,188.5,112.3,188.9,111.9z"/>
	<path class="st0" d="M198.6,101.8h1.5v11.6h-3.2c-1.1,0-2-0.4-2.7-1.1c-0.7-0.7-1-1.7-1-2.9c0-1.1,0.4-2,1.1-2.8
		c0.7-0.7,1.6-1.1,2.7-1.1c0.5,0,1.1,0.1,1.7,0.3V101.8z M198.6,112.1v-4.8c-0.5-0.2-0.9-0.4-1.4-0.4c-0.8,0-1.4,0.2-1.8,0.7
		c-0.4,0.5-0.7,1.2-0.7,2c0,0.8,0.2,1.4,0.6,1.8c0.2,0.3,0.5,0.4,0.7,0.5s0.7,0.1,1.4,0.1H198.6z"/>
	<path class="st0" d="M209.3,109.7h-5.4c0,0.7,0.3,1.3,0.7,1.7s1,0.6,1.7,0.6c1,0,1.9-0.3,2.8-0.9v1.5c-0.5,0.3-0.9,0.5-1.4,0.7
		c-0.5,0.1-1,0.2-1.6,0.2c-0.8,0-1.5-0.2-2-0.5c-0.5-0.3-0.9-0.8-1.2-1.4c-0.3-0.6-0.5-1.3-0.5-2c0-1.2,0.3-2.1,1-2.8
		c0.7-0.7,1.5-1.1,2.6-1.1c1,0,1.8,0.4,2.4,1.1c0.6,0.7,0.9,1.7,0.9,2.8V109.7z M203.9,108.8h3.8c0-0.6-0.2-1.1-0.5-1.4
		c-0.3-0.3-0.8-0.5-1.3-0.5c-0.5,0-1,0.2-1.3,0.5C204.3,107.7,204,108.2,203.9,108.8z"/>
	<path class="st0" d="M223.7,101.8h2.1l-5,5.5l6.3,6.1h-2.3l-5.9-5.7v5.7h-1.7v-11.6h1.7v5.3L223.7,101.8z"/>
	<path class="st0" d="M230.2,105.7v1c0.7-0.7,1.4-1.1,2.3-1.1c0.5,0,0.9,0.1,1.3,0.4c0.4,0.2,0.7,0.6,0.9,1s0.3,1.1,0.3,2v4.4h-1.5
		V109c0-0.8-0.1-1.3-0.4-1.7c-0.2-0.3-0.6-0.5-1.2-0.5c-0.7,0-1.3,0.4-1.8,1.1v5.5h-1.5v-7.6H230.2z"/>
	<path class="st0" d="M238.6,102.5c0.2,0,0.5,0.1,0.6,0.3c0.2,0.2,0.3,0.4,0.3,0.6c0,0.2-0.1,0.5-0.3,0.6c-0.2,0.2-0.4,0.3-0.6,0.3
		c-0.2,0-0.4-0.1-0.6-0.3c-0.2-0.2-0.3-0.4-0.3-0.6c0-0.2,0.1-0.4,0.3-0.6C238.1,102.6,238.3,102.5,238.6,102.5z M237.8,105.7h1.5
		v7.6h-1.5V105.7z"/>
	<path class="st0" d="M246.8,105.7h1.6l-3.4,7.8h-0.5l-3.5-7.8h1.7l2.1,4.7L246.8,105.7z"/>
	<path class="st0" d="M256.4,109.7H251c0,0.7,0.3,1.3,0.7,1.7c0.5,0.4,1,0.6,1.7,0.6c1,0,1.9-0.3,2.8-0.9v1.5
		c-0.5,0.3-0.9,0.5-1.4,0.7c-0.5,0.1-1,0.2-1.6,0.2c-0.8,0-1.5-0.2-2-0.5c-0.5-0.3-0.9-0.8-1.3-1.4c-0.3-0.6-0.5-1.3-0.5-2
		c0-1.2,0.3-2.1,1-2.8c0.7-0.7,1.5-1.1,2.6-1.1c1,0,1.8,0.4,2.4,1.1c0.6,0.7,0.9,1.7,0.9,2.8V109.7z M251.1,108.8h3.8
		c0-0.6-0.2-1.1-0.5-1.4c-0.3-0.3-0.8-0.5-1.3-0.5c-0.5,0-1,0.2-1.3,0.5C251.4,107.7,251.2,108.2,251.1,108.8z"/>
	<path class="st0" d="M258.3,112.8v-1.6c0.4,0.3,0.9,0.5,1.3,0.7s0.8,0.3,1.1,0.3c0.3,0,0.6-0.1,0.8-0.2c0.2-0.2,0.3-0.3,0.3-0.6
		c0-0.2-0.1-0.4-0.2-0.6s-0.5-0.4-1-0.6c-1-0.5-1.6-1-1.9-1.4c-0.3-0.4-0.5-0.8-0.5-1.3c0-0.6,0.2-1.1,0.7-1.4
		c0.5-0.4,1-0.6,1.8-0.6c0.7,0,1.5,0.2,2.3,0.6v1.5c-0.9-0.5-1.6-0.8-2.2-0.8c-0.3,0-0.5,0.1-0.7,0.2c-0.2,0.1-0.3,0.3-0.3,0.5
		c0,0.2,0.1,0.3,0.2,0.5c0.2,0.2,0.4,0.4,0.9,0.6l0.5,0.3c1.3,0.7,1.9,1.5,1.9,2.4c0,0.6-0.2,1.1-0.7,1.5c-0.5,0.4-1.1,0.6-1.9,0.6
		c-0.5,0-0.9,0-1.2-0.1C259.3,113.3,258.8,113.1,258.3,112.8z"/>
	<path class="st0" d="M278.5,113.4l-1.3-1.6c-0.1,0.1-0.3,0.3-0.6,0.5l0,0c-0.4,0.3-0.9,0.6-1.5,0.8c-0.6,0.2-1.1,0.3-1.6,0.3
		c-0.8,0-1.5-0.3-2-0.8c-0.6-0.5-0.8-1.2-0.8-1.9c0-0.5,0.1-1,0.4-1.5c0.3-0.4,0.7-0.9,1.3-1.3l0,0c0.4-0.3,0.7-0.5,0.9-0.6
		c-0.9-0.9-1.3-1.8-1.3-2.7c0-0.8,0.3-1.4,0.8-1.9c0.5-0.5,1.2-0.7,2.1-0.7c0.8,0,1.5,0.2,2.1,0.7c0.5,0.5,0.8,1.1,0.8,1.8
		c0,1-0.7,2-2,3l-0.1,0.1l1.6,1.9c0.5-0.5,0.9-1.1,1.2-1.9h1.7c-0.4,1-1,2-1.9,3l2.4,2.7H278.5z M275.8,111l0.4-0.3l-1.9-2.2
		l-0.7,0.5c-0.9,0.6-1.3,1.2-1.3,1.8c0,0.3,0.1,0.6,0.4,0.8c0.3,0.2,0.6,0.3,1,0.3c0.3,0,0.7-0.1,1-0.3
		C275.1,111.5,275.5,111.3,275.8,111z M274.7,106.5l0.6-0.4c0.6-0.4,0.9-0.9,0.9-1.4c0-0.3-0.1-0.6-0.4-0.8s-0.6-0.3-0.9-0.3
		c-0.4,0-0.7,0.1-0.9,0.3c-0.2,0.2-0.4,0.5-0.4,0.8c0,0.3,0.1,0.6,0.3,1S274.4,106.2,274.7,106.5z"/>
	<path class="st0" d="M288,101.8h1.7v10.1h5.2v1.5H288V101.8z"/>
	<path class="st0" d="M303.3,109.7h-5.4c0,0.7,0.3,1.3,0.7,1.7s1,0.6,1.7,0.6c1,0,1.9-0.3,2.8-0.9v1.5c-0.5,0.3-0.9,0.5-1.4,0.7
		c-0.5,0.1-1,0.2-1.6,0.2c-0.8,0-1.5-0.2-2-0.5c-0.5-0.3-0.9-0.8-1.3-1.4c-0.3-0.6-0.5-1.3-0.5-2c0-1.2,0.3-2.1,1-2.8
		c0.7-0.7,1.5-1.1,2.6-1.1c1,0,1.8,0.4,2.4,1.1s0.9,1.7,0.9,2.8V109.7z M297.9,108.8h3.8c0-0.6-0.2-1.1-0.5-1.4
		c-0.3-0.3-0.8-0.5-1.3-0.5s-1,0.2-1.3,0.5C298.3,107.7,298,108.2,297.9,108.8z"/>
	<path class="st0" d="M310.3,108.8v3.2c0,0.3,0.1,0.4,0.3,0.4c0.2,0,0.5-0.1,0.9-0.4v0.9c-0.3,0.2-0.6,0.4-0.8,0.5
		c-0.2,0.1-0.4,0.1-0.7,0.1c-0.6,0-1-0.3-1.1-0.8c-0.6,0.5-1.3,0.7-2,0.7c-0.5,0-1-0.2-1.3-0.5c-0.4-0.4-0.5-0.8-0.5-1.3
		c0-0.5,0.2-0.9,0.5-1.3s0.8-0.7,1.5-0.9l1.9-0.7v-0.4c0-0.9-0.5-1.4-1.4-1.4c-0.8,0-1.6,0.4-2.4,1.3v-1.7c0.6-0.7,1.4-1,2.5-1
		c0.8,0,1.5,0.2,2,0.6c0.2,0.1,0.3,0.3,0.4,0.6s0.2,0.5,0.3,0.7S310.3,108.1,310.3,108.8z M308.8,111.9v-2.3l-1,0.4
		c-0.5,0.2-0.9,0.4-1.1,0.6c-0.2,0.2-0.3,0.5-0.3,0.8c0,0.3,0.1,0.6,0.3,0.8s0.5,0.3,0.8,0.3C308,112.5,308.4,112.3,308.8,111.9z"/>
	<path class="st0" d="M312.3,107l2.8-2.8v1.6h2.4v1.4h-2.4v3.7c0,0.9,0.4,1.3,1.1,1.3c0.5,0,1.1-0.2,1.7-0.5v1.4
		c-0.6,0.3-1.2,0.5-1.9,0.5c-0.7,0-1.3-0.2-1.7-0.6c-0.1-0.1-0.3-0.3-0.4-0.4s-0.2-0.4-0.2-0.6s-0.1-0.7-0.1-1.4v-3.4h-1.3V107z"/>
	<path class="st0" d="M319.7,101.8h1.5v5c0.6-0.8,1.4-1.2,2.3-1.2c0.5,0,1,0.1,1.4,0.4c0.4,0.3,0.7,0.6,0.9,1.1
		c0.2,0.4,0.3,1.1,0.3,2v4.3h-1.5v-4.7c0-0.6-0.1-1-0.4-1.3c-0.3-0.3-0.6-0.5-1.1-0.5c-0.3,0-0.6,0.1-0.9,0.3s-0.6,0.5-1,0.9v5.5
		h-1.5V101.8z"/>
	<path class="st0" d="M335.3,109.7H330c0,0.7,0.3,1.3,0.7,1.7s1,0.6,1.7,0.6c1,0,1.9-0.3,2.8-0.9v1.5c-0.5,0.3-0.9,0.5-1.4,0.7
		c-0.5,0.1-1,0.2-1.6,0.2c-0.8,0-1.5-0.2-2-0.5c-0.5-0.3-0.9-0.8-1.3-1.4c-0.3-0.6-0.5-1.3-0.5-2c0-1.2,0.3-2.1,1-2.8
		c0.7-0.7,1.5-1.1,2.6-1.1c1,0,1.8,0.4,2.4,1.1s0.9,1.7,0.9,2.8V109.7z M330,108.8h3.8c0-0.6-0.2-1.1-0.5-1.4
		c-0.3-0.3-0.8-0.5-1.3-0.5s-1,0.2-1.3,0.5C330.3,107.7,330.1,108.2,330,108.8z"/>
	<path class="st0" d="M339.2,105.7v1.8l0.1-0.1c0.7-1.2,1.5-1.8,2.2-1.8c0.6,0,1.2,0.3,1.8,0.9l-0.8,1.3c-0.5-0.5-1-0.7-1.5-0.7
		c-0.5,0-0.9,0.2-1.3,0.7c-0.4,0.5-0.5,1-0.5,1.7v4h-1.5v-7.6H339.2z"/>
	<path class="st0" d="M360.5,110.7v1.8c-1.2,0.7-2.6,1-4.2,1c-1.3,0-2.4-0.3-3.3-0.8c-0.9-0.5-1.6-1.2-2.1-2.1
		c-0.5-0.9-0.8-1.9-0.8-3c0-1.7,0.6-3.1,1.8-4.3c1.2-1.2,2.7-1.7,4.5-1.7c1.2,0,2.6,0.3,4.1,1v1.8c-1.4-0.8-2.7-1.2-4-1.2
		c-1.3,0-2.4,0.4-3.3,1.3c-0.9,0.8-1.3,1.9-1.3,3.2c0,1.3,0.4,2.3,1.3,3.1s2,1.2,3.3,1.2C357.8,112,359.2,111.5,360.5,110.7z"/>
	<path class="st0" d="M364.6,105.7v1.8l0.1-0.1c0.7-1.2,1.5-1.8,2.2-1.8c0.6,0,1.2,0.3,1.8,0.9l-0.8,1.3c-0.5-0.5-1-0.7-1.5-0.7
		c-0.5,0-0.9,0.2-1.3,0.7c-0.4,0.5-0.5,1-0.5,1.7v4h-1.5v-7.6H364.6z"/>
	<path class="st0" d="M375.1,108.8v3.2c0,0.3,0.1,0.4,0.3,0.4c0.2,0,0.5-0.1,0.9-0.4v0.9c-0.3,0.2-0.6,0.4-0.8,0.5
		c-0.2,0.1-0.4,0.1-0.7,0.1c-0.6,0-1-0.3-1.1-0.8c-0.6,0.5-1.3,0.7-2,0.7c-0.5,0-1-0.2-1.3-0.5c-0.4-0.4-0.5-0.8-0.5-1.3
		c0-0.5,0.2-0.9,0.5-1.3s0.8-0.7,1.5-0.9l1.9-0.7v-0.4c0-0.9-0.5-1.4-1.4-1.4c-0.8,0-1.6,0.4-2.4,1.3v-1.7c0.6-0.7,1.4-1,2.5-1
		c0.8,0,1.5,0.2,2,0.6c0.2,0.1,0.3,0.3,0.4,0.6s0.2,0.5,0.3,0.7S375.1,108.1,375.1,108.8z M373.7,111.9v-2.3l-1,0.4
		c-0.5,0.2-0.9,0.4-1.1,0.6c-0.2,0.2-0.3,0.5-0.3,0.8c0,0.3,0.1,0.6,0.3,0.8s0.5,0.3,0.8,0.3C372.8,112.5,373.2,112.3,373.7,111.9z"
		/>
	<path class="st0" d="M378.4,105.7v-0.5c0-1.2,0.3-2.1,0.8-2.7c0.5-0.6,1.2-0.9,1.9-0.9c0.3,0,0.7,0.1,1.1,0.2v1.5
		c-0.2-0.1-0.5-0.1-0.7-0.1c-0.6,0-1,0.2-1.2,0.5s-0.3,0.9-0.3,1.7v0.5h1.4v1.4h-1.4v6.3h-1.5v-6.3h-1.1v-1.4H378.4z"/>
	<path class="st0" d="M382,107l2.8-2.8v1.6h2.4v1.4h-2.4v3.7c0,0.9,0.4,1.3,1.1,1.3c0.5,0,1.1-0.2,1.7-0.5v1.4
		c-0.6,0.3-1.2,0.5-1.9,0.5c-0.7,0-1.3-0.2-1.7-0.6c-0.1-0.1-0.3-0.3-0.4-0.4s-0.2-0.4-0.2-0.6s-0.1-0.7-0.1-1.4v-3.4H382V107z"/>
	<path class="st0" d="M389,112.8v-1.6c0.4,0.3,0.9,0.5,1.3,0.7s0.8,0.3,1.1,0.3c0.3,0,0.6-0.1,0.8-0.2c0.2-0.2,0.3-0.3,0.3-0.6
		c0-0.2-0.1-0.4-0.2-0.6s-0.5-0.4-1-0.6c-1-0.5-1.6-1-1.9-1.4s-0.5-0.8-0.5-1.3c0-0.6,0.2-1.1,0.7-1.4c0.5-0.4,1-0.6,1.8-0.6
		c0.7,0,1.5,0.2,2.3,0.6v1.5c-0.9-0.5-1.6-0.8-2.2-0.8c-0.3,0-0.5,0.1-0.7,0.2c-0.2,0.1-0.3,0.3-0.3,0.5c0,0.2,0.1,0.3,0.2,0.5
		c0.2,0.2,0.4,0.4,0.9,0.6l0.5,0.3c1.3,0.7,1.9,1.5,1.9,2.4c0,0.6-0.2,1.1-0.7,1.5c-0.5,0.4-1.1,0.6-1.9,0.6c-0.5,0-0.9,0-1.2-0.1
		C390,113.3,389.6,113.1,389,112.8z"/>
</g>
</svg>
