<?xml version="1.0" encoding="utf-8"?>
<!-- Generator: Adobe Illustrator 24.0.0, SVG Export Plug-In . SVG Version: 6.00 Build 0)  -->
<svg version="1.1" id="Layer_1" xmlns="http://www.w3.org/2000/svg" xmlns:xlink="http://www.w3.org/1999/xlink" x="0px" y="0px"
	 viewBox="0 0 400 90" style="enable-background:new 0 0 400 90;" xml:space="preserve">
<style type="text/css">
	.st0{fill:#FFFFFF;}
	.st1{fill:none;stroke:#FFFFFF;stroke-width:4;stroke-miterlimit:10;}
</style>
<g>
	<path class="st0" d="M113,39.6l-4.6-3.4c-2.9-2.1-4.9-4.2-6.1-6.3c-1.2-2.1-1.8-4.4-1.8-7.1c0-4,1.1-7.3,3.4-9.8
		c2.3-2.5,5.3-3.8,8.9-3.8c3.5,0,6.7,1.2,9.6,3.6v8.3c-3-3.5-6.3-5.3-9.7-5.3c-2,0-3.6,0.6-4.8,1.7c-1.3,1.1-1.9,2.5-1.9,4.2
		c0,1.5,0.5,3,1.4,4.3c0.9,1.3,2.4,2.7,4.5,4.2l4.6,3.3c5.1,3.7,7.7,8.5,7.7,14.2c0,4.1-1.1,7.4-3.4,10c-2.2,2.6-5.2,3.8-8.8,3.8
		c-4.1,0-7.9-1.6-11.3-4.7v-9.3c3.2,5,7,7.5,11.2,7.5c1.9,0,3.4-0.6,4.7-1.9c1.2-1.3,1.9-2.9,1.9-4.8
		C118.6,45.4,116.7,42.4,113,39.6z"/>
	<path class="st0" d="M130,9.9h5.5v51.1H130V9.9z M148,27.4h6.5l-11.8,16.5l14.2,17.2h-7.3l-13.8-17.2L148,27.4z"/>
	<path class="st0" d="M170.8,27.3c4.2,0,7.7,1.7,10.5,5c2.8,3.3,4.2,7.5,4.2,12.5c0,4.9-1.4,8.9-4.2,12.1c-2.8,3.2-6.4,4.8-10.6,4.8
		c-4.1,0-7.6-1.6-10.4-4.9c-2.8-3.3-4.2-7.3-4.2-12.2c0-4.9,1.4-9,4.2-12.3C163.1,28.9,166.6,27.3,170.8,27.3z M170.5,33.3
		c-2.6,0-4.8,1-6.4,3.1c-1.7,2.1-2.5,4.8-2.5,8c0,3.2,0.9,5.9,2.6,7.9c1.7,2,3.9,3.1,6.6,3.1c2.7,0,4.9-1,6.6-3.1
		c1.7-2.1,2.6-4.7,2.6-7.9c0-3.2-0.9-5.8-2.7-7.9C175.4,34.4,173.2,33.3,170.5,33.3z"/>
	<path class="st0" d="M187.6,32.7l10.3-12.3v7h8.7v6h-8.7v16.5c0,3.8,1.3,5.8,3.9,5.8c2,0,4-0.8,6.2-2.4v6.2
		c-2.1,1.4-4.4,2.2-6.9,2.2c-2.5,0-4.6-0.9-6.2-2.7c-0.5-0.5-0.9-1.1-1.3-1.8c-0.3-0.7-0.6-1.5-0.9-2.6c-0.2-1.1-0.3-3.2-0.3-6.2
		V33.4h-4.8V32.7z"/>
	<path class="st0" d="M208.1,32.7l10.3-12.3v7h8.7v6h-8.7v16.5c0,3.8,1.3,5.8,3.9,5.8c2,0,4-0.8,6.2-2.4v6.2
		c-2.1,1.4-4.4,2.2-6.9,2.2c-2.5,0-4.6-0.9-6.2-2.7c-0.5-0.5-0.9-1.1-1.3-1.8c-0.3-0.7-0.6-1.5-0.9-2.6c-0.2-1.1-0.3-3.2-0.3-6.2
		V33.4h-4.8V32.7z"/>
	<path class="st0" d="M255.9,44.8h-19.4c0.1,3.2,1,5.8,2.7,7.7c1.6,1.9,3.7,2.9,6.3,2.9c3.6,0,6.9-1.4,10-4.1v6.5
		c-1.7,1.4-3.3,2.3-5,2.9c-1.6,0.6-3.6,0.9-5.8,0.9c-3,0-5.5-0.8-7.4-2.3c-1.9-1.5-3.4-3.6-4.5-6.2c-1.1-2.6-1.7-5.6-1.7-9
		c0-5.1,1.2-9.3,3.6-12.5c2.4-3.2,5.5-4.8,9.3-4.8c3.7,0,6.6,1.6,8.8,4.7c2.2,3.1,3.3,7.3,3.3,12.6V44.8z M236.6,40.8h13.9
		c-0.1-2.7-0.8-4.7-1.9-6.1c-1.2-1.4-2.7-2.2-4.7-2.2c-2,0-3.6,0.7-4.8,2.2C237.8,36.1,237,38.1,236.6,40.8z"/>
	<path class="st0" d="M286.2,9.9h7.5l-18.2,24.3l22.6,26.9H290l-21.4-25.3v25.3h-6V9.9h6v23.4L286.2,9.9z"/>
	<path class="st0" d="M307.5,27.4v4.3c2.4-3.3,5.2-4.9,8.3-4.9c1.7,0,3.3,0.5,4.8,1.6c1.5,1.1,2.6,2.6,3.4,4.5
		c0.8,1.9,1.2,4.9,1.2,9v19.3h-5.5V41.9c0-3.4-0.4-5.9-1.3-7.4c-0.9-1.5-2.3-2.2-4.3-2.2c-2.6,0-4.8,1.6-6.6,4.7v24h-5.6V27.4H307.5
		z"/>
	<path class="st0" d="M335.6,13.2c0.9,0,1.7,0.4,2.3,1.1c0.6,0.8,1,1.7,1,2.8c0,1.1-0.3,2-1,2.8c-0.6,0.8-1.4,1.2-2.3,1.2
		c-0.8,0-1.6-0.4-2.2-1.2c-0.6-0.8-1-1.7-1-2.8c0-1,0.3-1.9,1-2.7C334,13.6,334.7,13.2,335.6,13.2z M332.9,27.4h5.5v33.7h-5.5V27.4z
		"/>
	<path class="st0" d="M363.1,27.4h5.9l-12.2,34.3H355l-12.5-34.3h6l7.4,20.7L363.1,27.4z"/>
	<path class="st0" d="M395.4,44.8H376c0.1,3.2,1,5.8,2.7,7.7c1.6,1.9,3.7,2.9,6.3,2.9c3.6,0,6.9-1.4,10-4.1v6.5
		c-1.7,1.4-3.3,2.3-5,2.9c-1.6,0.6-3.6,0.9-5.8,0.9c-3,0-5.5-0.8-7.4-2.3c-1.9-1.5-3.4-3.6-4.5-6.2c-1.1-2.6-1.7-5.6-1.7-9
		c0-5.1,1.2-9.3,3.6-12.5c2.4-3.2,5.5-4.8,9.3-4.8c3.7,0,6.6,1.6,8.8,4.7c2.2,3.1,3.3,7.3,3.3,12.6V44.8z M376.1,40.8H390
		c-0.1-2.7-0.8-4.7-1.9-6.1c-1.2-1.4-2.7-2.2-4.7-2.2c-2,0-3.6,0.7-4.8,2.2C377.3,36.1,376.5,38.1,376.1,40.8z"/>
</g>
<g>
	<path class="st0" d="M41.4,82c0.5-1.8,1.2-4.2,1.6-7.3c0.8-6,0.4-10.8,0.2-11.9c-0.5-5-0.8-7.4-1.2-9c-0.1-0.4-0.2-1-0.2-1.8
		c0-1.3,0.5-2.5,1-4.2c0.1-0.2,0.1-0.3,0.1-0.4c1.2-0.6,3.5-1.9,5.4-4.7c2.3-3.3,2.6-6.6,2.6-8.1c0-0.6,0-4.6-2.4-8.1
		c-1.3-2-3.3-3.6-3.7-3.7c-0.1,0-0.4-0.1-0.7-0.4c-0.1-0.1-0.1-0.1-0.2-0.2l6-8.7c-3.1,2.4-5.6,4.2-7.2,5.4c-0.2,0.1-0.7,0.6-1,0.4
		c-0.4-0.2,0.3-1.4,0.6-3.6c0.1-0.9,0-0.9,0.1-1.4c0.2-1,0.7-1.4,1.1-2.7c0.1-0.4,0.3-0.9,0.4-1.4l-6.6,8.3l0.1-7.8
		c-2.3,4.9-3.1,6.9-3.2,7.3c0,0.1-0.1,0.5-0.4,0.8c-0.1,0.1-0.2,0.1-0.2,0.1l-0.5-10c-0.7,5.1-1,7-0.9,7.4c0,0.1,0.1,0.4,0,0.5
		c-0.1,0-0.1,0-0.2,0l-1.3-2l-1.2-4.5c-0.4,3.4-0.4,4.8-0.3,5.5c0,0.2,0.2,1.1-0.1,2.1c0,0.1-0.1,0.3-0.1,0.3l-1-1.8
		c1.1,2.9,1,3.7,0.7,3.9c-0.1,0-0.2,0.1-0.3,0l-1.7-4c0,0.3,0.1,0.8,0.1,1.3c0,0.7,0,1.7-0.2,1.7c-0.3,0.1-0.7-2.8-2.6-6.3
		c-0.2-0.4-0.4-0.7-0.5-0.9c1.1,4.7,1.9,7.5,2.5,9.3c0.1,0.3,0.3,1,0.2,1c-0.3,0.2-1.9-2.3-3.5-4.6c-1.3-2-2.2-3.4-4-5.1
		c-0.2-0.2-0.4-0.4-0.6-0.5c4,6.6,6.8,11.3,7.1,11.7c0,0.1,0.2,0.4,0.4,0.8c0,0.1,0.1,0.2,0.1,0.3c-1.3-0.3-2.2-0.7-2.8-1.1
		c-0.7-0.4-1.2-0.8-2.8-1.9c-0.4-0.2-0.7-0.4-0.9-0.6c1.3,1.7,3,3.1,4.8,4.6c0.2,0.1,0.3,0.2,0.5,0.4c-0.8,1.1-2.6,4-2.7,7.9
		c0,0.8-0.1,6.3,4.2,10.7c0.4,0.4,4.3,4.2,9.6,4.3c0.1,0,0.1,0,0.2,0c0.5,1.6,0.9,2.2,1.2,2.6c0.1,0.1,0.5,0.5,0.9,1.3
		c0,0.1,0.1,0.1,0.1,0.2c0.2,1,0.5,2.4,0.7,4c0.1,0.7,0.5,3.9,0.6,8.8c0.1,3.8,0.1,5.7-0.3,8.2c-0.4,2.9-1.1,5.4-1.7,7.1
		c-0.1,0.3-0.1,0.6-0.1,0.9c0,0.1,0.2,1.1,1.1,1.6c0.1,0.1,0.9,0.4,1.7,0.1c0.1,0,0.2-0.1,0.3-0.1c0.4-0.2,0.7-0.6,0.8-1L41.4,82z"
		/>
	<path class="st0" d="M44.7,67.4c0.5-1.3,1.4-2.6,1.4-2.8c1-1.6,1.2-3.4,1.4-5.1c0.3-2.5-0.2-4.6-0.6-6.1c0.1,0,0.2,0.1,0.4,0.2
		c2.2,0.9,4.9,0.1,6.5-1c3.6-2.4,3.3-7.2,3.3-7.4c0.1,0,0.2,0.1,0.3,0.1c0.5,0.2,2.5,0.8,3.9,0.9c2.1,0.2,3.8-0.8,4-0.9
		c2-1.1,3.3-3.2,3.6-5.2c0.1-0.5,0.1-1,0.1-1.3c0,0,0.1,0.1,0.1,0.2c0.3,0.3,0.4,0.6,0.4,0.6c0.2,0.4,1.1,1.3,1.8,1.9
		c1.5,1.2,3.4,1.4,4.3,1.5c0.9,0.1,1.8,0,3.6-0.1c1-0.1,2.1-0.2,2.7-0.3c-0.3,0.1-0.7,0.2-1.2,0.3c-0.9,0.2-1.5,0.3-1.6,0.3
		c-0.6,0.1-3.7,0.8-8.2,2.9c-4.6,2.1-7.9,4.4-9,5.1c-4.3,3-7,5.8-10.3,9.3c-2.3,2.4-4,4.3-5.5,6.6c-0.8,1.1-1.3,1.8-1.7,2.5
		l-0.3,0.4c0-0.2,0.1-0.6,0.2-0.9C44.3,68.8,44.4,68.1,44.7,67.4z"/>
	<path class="st0" d="M82.3,42.8c-0.7,0.1-1.6,0.3-2.7,0.6c-7.6,2-12.7,5.4-15.8,7.5c-9.8,6.6-16.6,15.6-19,18.9
		c0.2-0.2,0.6-0.5,1.1-1c1.8-1.7,3-3,3.4-3.5c3.3-3.7,8.3-5.9,9.4-6.3c1.7-0.7,2.7-0.9,3.7-1c2-0.2,3.6,0.3,4.6,0.6
		c0-0.1,0-0.3,0-0.6c0.1-1.1,0.2-2.5,0.2-2.9c0.2-1.9,1.5-3.5,1.6-3.7c1.7-2.2,4.2-2.7,5.1-2.9c2-0.4,3.6-0.1,4.6,0.2
		c0-0.1,0-0.2,0-0.4c-0.1-0.9,0-1.8,0-2.2c0.2-1.4,1.9-2.4,2.3-2.7L82.3,42.8z"/>
	<path class="st0" d="M37.3,73.1c-0.3-1.3-1-2.8-1.1-2.9c-0.8-1.8-0.8-3.6-0.8-5.2c0-2.5,0.7-4.6,1.3-6c-0.1,0-0.2,0.1-0.4,0.1
		c-2.3,0.6-4.9-0.5-6.3-1.8c-3.2-2.8-2.4-7.6-2.3-7.8c-0.1,0-0.2,0-0.3,0.1c-0.5,0.1-2.6,0.5-4,0.4c-2.1-0.1-3.7-1.2-3.9-1.4
		c-1.9-1.3-2.9-3.5-3-5.6c0-0.5,0-1,0.1-1.3c0,0-0.1,0.1-0.2,0.1c-0.3,0.3-0.5,0.5-0.5,0.6c-0.2,0.3-1.3,1.2-2,1.6
		c-1.6,1-3.5,0.9-4.4,0.9c-0.9,0-1.8-0.2-3.5-0.6c-1-0.2-2-0.4-2.6-0.6c0.3,0.1,0.6,0.3,1.1,0.4c0.8,0.3,1.5,0.5,1.5,0.5
		c0.6,0.2,3.6,1.3,7.8,3.8c4.3,2.6,7.3,5.3,8.3,6.2c3.9,3.5,6.3,6.6,9.1,10.4c2,2.6,3.4,4.8,4.7,7.2c0.6,1.2,1.1,2,1.4,2.7l0.2,0.4
		c0-0.2,0-0.6-0.1-0.9C37.5,74.5,37.5,73.8,37.3,73.1z"/>
	<path class="st0" d="M3,44.1c0.6,0.2,1.5,0.5,2.6,1c7.3,2.9,12,6.9,14.7,9.3C29.3,62.2,35,72,36.9,75.6c-0.2-0.2-0.6-0.6-1-1.1
		c-1.6-1.9-2.6-3.4-3-3.9c-2.9-4.1-7.5-6.8-8.6-7.4c-1.6-0.9-2.6-1.3-3.6-1.5c-2-0.4-3.6-0.2-4.7,0c0-0.1,0-0.3,0-0.6
		c0.1-1.1,0.1-2.5,0.1-2.9c0-1.9-1-3.7-1.1-3.8c-1.4-2.4-3.9-3.2-4.7-3.5c-1.9-0.6-3.6-0.5-4.6-0.4c0-0.1,0.1-0.2,0.1-0.4
		c0.2-0.9,0.3-1.8,0.3-2.1c0-1.4-1.6-2.7-1.9-2.9L3,44.1z"/>
</g>
<line class="st1" x1="89.1" y1="4.3" x2="89.1" y2="86"/>
<g>
	<path class="st0" d="M109.1,68.7h1.9v13.2h-1.9v-5.7h-7.4v5.7h-1.9V68.7h1.9v5.7h7.4V68.7z"/>
	<path class="st0" d="M119.3,76.7v3.7c0,0.3,0.1,0.4,0.3,0.4c0.2,0,0.5-0.2,1-0.5v1c-0.4,0.3-0.7,0.4-0.9,0.5
		c-0.2,0.1-0.5,0.1-0.7,0.1c-0.7,0-1.2-0.3-1.3-0.9c-0.7,0.6-1.5,0.8-2.3,0.8c-0.6,0-1.1-0.2-1.5-0.6c-0.4-0.4-0.6-0.9-0.6-1.5
		c0-0.5,0.2-1,0.6-1.5c0.4-0.4,0.9-0.8,1.7-1l2.2-0.8v-0.5c0-1-0.5-1.6-1.6-1.6c-0.9,0-1.8,0.5-2.7,1.5v-1.9
		c0.7-0.8,1.6-1.2,2.9-1.2c0.9,0,1.7,0.2,2.3,0.7c0.2,0.2,0.4,0.4,0.5,0.6c0.2,0.3,0.2,0.5,0.3,0.8C119.3,75.5,119.3,76,119.3,76.7z
		 M117.7,80.2v-2.6l-1.1,0.4c-0.6,0.2-1,0.5-1.2,0.7s-0.4,0.5-0.4,0.9c0,0.4,0.1,0.6,0.3,0.9c0.2,0.2,0.5,0.3,0.9,0.3
		C116.7,80.8,117.2,80.6,117.7,80.2z M116.8,67.8c0.5,0,0.9,0.2,1.2,0.5c0.3,0.3,0.5,0.8,0.5,1.3s-0.2,0.9-0.5,1.3
		c-0.3,0.4-0.8,0.5-1.3,0.5c-0.5,0-0.9-0.2-1.3-0.5c-0.3-0.3-0.5-0.8-0.5-1.3c0-0.5,0.2-0.9,0.5-1.3C115.9,68,116.3,67.8,116.8,67.8
		z M116.8,68.6c-0.3,0-0.6,0.1-0.8,0.3s-0.3,0.4-0.3,0.7c0,0.3,0.1,0.6,0.3,0.8c0.2,0.2,0.5,0.3,0.8,0.3s0.6-0.1,0.8-0.3
		c0.2-0.2,0.3-0.5,0.3-0.8c0-0.3-0.1-0.5-0.3-0.7C117.4,68.7,117.1,68.6,116.8,68.6z"/>
	<path class="st0" d="M124.1,73.2v1.1c0.8-0.8,1.6-1.3,2.6-1.3c0.5,0,1,0.1,1.5,0.4c0.5,0.3,0.8,0.7,1.1,1.1
		c0.2,0.5,0.4,1.3,0.4,2.3v5H128V77c0-0.9-0.1-1.5-0.4-1.9c-0.3-0.4-0.7-0.6-1.4-0.6c-0.8,0-1.5,0.4-2.1,1.2v6.2h-1.8v-8.7H124.1z"
		/>
	<path class="st0" d="M138.1,68.7h1.7v13.2h-3.7c-1.3,0-2.3-0.4-3.1-1.2s-1.1-1.9-1.1-3.3c0-1.3,0.4-2.3,1.2-3.1s1.8-1.2,3.1-1.2
		c0.6,0,1.2,0.1,1.9,0.4V68.7z M138.1,80.4v-5.5c-0.5-0.3-1.1-0.4-1.6-0.4c-0.9,0-1.5,0.3-2,0.8c-0.5,0.6-0.8,1.3-0.8,2.3
		c0,0.9,0.2,1.6,0.7,2.1c0.3,0.3,0.5,0.5,0.8,0.6c0.3,0.1,0.8,0.2,1.6,0.2H138.1z"/>
	<path class="st0" d="M142.5,68.7h1.7v13.2h-1.7V68.7z"/>
	<path class="st0" d="M152.4,76.7v3.7c0,0.3,0.1,0.4,0.3,0.4c0.2,0,0.5-0.2,1-0.5v1c-0.4,0.3-0.7,0.4-0.9,0.5
		c-0.2,0.1-0.5,0.1-0.7,0.1c-0.7,0-1.2-0.3-1.3-0.9c-0.7,0.6-1.5,0.8-2.3,0.8c-0.6,0-1.1-0.2-1.5-0.6c-0.4-0.4-0.6-0.9-0.6-1.5
		c0-0.5,0.2-1,0.6-1.5c0.4-0.4,0.9-0.8,1.7-1l2.2-0.8v-0.5c0-1-0.5-1.6-1.6-1.6c-0.9,0-1.8,0.5-2.7,1.5v-1.9
		c0.7-0.8,1.6-1.2,2.9-1.2c0.9,0,1.7,0.2,2.3,0.7c0.2,0.2,0.4,0.4,0.5,0.6c0.2,0.3,0.2,0.5,0.3,0.8C152.4,75.5,152.4,76,152.4,76.7z
		 M150.7,80.2v-2.6l-1.1,0.4c-0.6,0.2-1,0.5-1.2,0.7s-0.4,0.5-0.4,0.9c0,0.4,0.1,0.6,0.3,0.9c0.2,0.2,0.5,0.3,0.9,0.3
		C149.8,80.8,150.3,80.6,150.7,80.2z"/>
	<path class="st0" d="M160.1,73.2h1.9l-3.8,8.8h-0.6l-3.9-8.8h1.9l2.3,5.3L160.1,73.2z"/>
	<path class="st0" d="M170.6,77.7h-6.1c0,0.8,0.3,1.5,0.8,2c0.5,0.5,1.2,0.7,2,0.7c1.1,0,2.2-0.4,3.1-1.1V81c-0.5,0.4-1,0.6-1.6,0.8
		c-0.5,0.2-1.1,0.2-1.8,0.2c-1,0-1.7-0.2-2.3-0.6c-0.6-0.4-1.1-0.9-1.4-1.6c-0.4-0.7-0.5-1.4-0.5-2.3c0-1.3,0.4-2.4,1.1-3.2
		s1.7-1.2,2.9-1.2c1.1,0,2.1,0.4,2.7,1.2c0.7,0.8,1,1.9,1,3.2V77.7z M164.5,76.7h4.4c0-0.7-0.2-1.2-0.6-1.6
		c-0.4-0.4-0.9-0.6-1.5-0.6s-1.1,0.2-1.5,0.6C164.9,75.5,164.6,76,164.5,76.7z"/>
	<path class="st0" d="M178.5,68.7h1.7v13.2h-3.7c-1.3,0-2.3-0.4-3.1-1.2s-1.1-1.9-1.1-3.3c0-1.3,0.4-2.3,1.2-3.1s1.8-1.2,3.1-1.2
		c0.6,0,1.2,0.1,1.9,0.4V68.7z M178.5,80.4v-5.5c-0.5-0.3-1.1-0.4-1.6-0.4c-0.9,0-1.5,0.3-2,0.8c-0.5,0.6-0.8,1.3-0.8,2.3
		c0,0.9,0.2,1.6,0.7,2.1c0.3,0.3,0.5,0.5,0.8,0.6c0.3,0.1,0.8,0.2,1.6,0.2H178.5z"/>
	<path class="st0" d="M190.2,77.7h-6.1c0,0.8,0.3,1.5,0.8,2c0.5,0.5,1.2,0.7,2,0.7c1.1,0,2.2-0.4,3.1-1.1V81c-0.5,0.4-1,0.6-1.6,0.8
		c-0.5,0.2-1.1,0.2-1.8,0.2c-1,0-1.7-0.2-2.3-0.6c-0.6-0.4-1.1-0.9-1.4-1.6c-0.4-0.7-0.5-1.4-0.5-2.3c0-1.3,0.4-2.4,1.1-3.2
		s1.7-1.2,2.9-1.2c1.1,0,2.1,0.4,2.7,1.2c0.7,0.8,1,1.9,1,3.2V77.7z M184.2,76.7h4.4c0-0.7-0.2-1.2-0.6-1.6
		c-0.4-0.4-0.9-0.6-1.5-0.6s-1.1,0.2-1.5,0.6C184.5,75.5,184.3,76,184.2,76.7z"/>
	<path class="st0" d="M205.7,68.7h2.4l-5.7,6.2l7.1,6.9h-2.6l-6.7-6.5v6.5h-1.9V68.7h1.9v6L205.7,68.7z"/>
	<path class="st0" d="M212.6,73.2v1.1c0.8-0.8,1.6-1.3,2.6-1.3c0.5,0,1,0.1,1.5,0.4c0.5,0.3,0.8,0.7,1.1,1.1
		c0.2,0.5,0.4,1.3,0.4,2.3v5h-1.7V77c0-0.9-0.1-1.5-0.4-1.9c-0.3-0.4-0.7-0.6-1.4-0.6c-0.8,0-1.5,0.4-2.1,1.2v6.2h-1.8v-8.7H212.6z"
		/>
	<path class="st0" d="M221.7,69.6c0.3,0,0.5,0.1,0.7,0.3c0.2,0.2,0.3,0.4,0.3,0.7c0,0.3-0.1,0.5-0.3,0.7c-0.2,0.2-0.4,0.3-0.7,0.3
		c-0.3,0-0.5-0.1-0.7-0.3c-0.2-0.2-0.3-0.4-0.3-0.7c0-0.3,0.1-0.5,0.3-0.7C221.3,69.7,221.5,69.6,221.7,69.6z M220.9,73.2h1.7v8.7
		h-1.7V73.2z"/>
	<path class="st0" d="M230.7,73.2h1.9l-3.8,8.8h-0.6l-3.9-8.8h1.9l2.3,5.3L230.7,73.2z"/>
	<path class="st0" d="M241.1,77.7H235c0,0.8,0.3,1.5,0.8,2s1.2,0.7,2,0.7c1.1,0,2.2-0.4,3.1-1.1V81c-0.5,0.4-1,0.6-1.6,0.8
		c-0.5,0.2-1.1,0.2-1.8,0.2c-1,0-1.7-0.2-2.3-0.6c-0.6-0.4-1.1-0.9-1.4-1.6c-0.4-0.7-0.5-1.4-0.5-2.3c0-1.3,0.4-2.4,1.1-3.2
		s1.7-1.2,2.9-1.2c1.1,0,2.1,0.4,2.8,1.2c0.7,0.8,1,1.9,1,3.2V77.7z M235.1,76.7h4.4c0-0.7-0.2-1.2-0.6-1.6
		c-0.4-0.4-0.9-0.6-1.5-0.6s-1.1,0.2-1.5,0.6C235.4,75.5,235.2,76,235.1,76.7z"/>
	<path class="st0" d="M257.2,81.9l-1.5-1.8c-0.1,0.1-0.4,0.3-0.7,0.6l0,0c-0.4,0.4-1,0.7-1.7,1s-1.3,0.4-1.9,0.4
		c-0.9,0-1.7-0.3-2.3-0.9c-0.6-0.6-1-1.3-1-2.2c0-0.6,0.2-1.2,0.5-1.7c0.3-0.5,0.8-1,1.5-1.5l0,0c0.4-0.3,0.8-0.5,1.1-0.7
		c-1-1.1-1.5-2.1-1.5-3.1c0-0.9,0.3-1.6,0.9-2.2c0.6-0.6,1.4-0.8,2.4-0.8c1,0,1.7,0.3,2.4,0.8s0.9,1.2,0.9,2.1
		c0,1.2-0.8,2.3-2.3,3.4l-0.1,0.1l1.9,2.1c0.5-0.6,1-1.3,1.4-2.1h1.9c-0.5,1.2-1.2,2.3-2.1,3.5l2.7,3.1H257.2z M254.1,79.2l0.4-0.4
		l-2.1-2.5l-0.8,0.6c-1,0.7-1.5,1.3-1.5,2c0,0.4,0.2,0.7,0.5,1s0.7,0.4,1.2,0.4c0.4,0,0.7-0.1,1.2-0.3
		C253.4,79.7,253.8,79.5,254.1,79.2z M252.9,74.1l0.7-0.5c0.7-0.5,1-1,1-1.6c0-0.4-0.1-0.7-0.4-1c-0.3-0.3-0.6-0.4-1.1-0.4
		c-0.4,0-0.8,0.1-1,0.4s-0.4,0.5-0.4,0.9c0,0.3,0.1,0.7,0.3,1.1C252.2,73.4,252.5,73.8,252.9,74.1z"/>
	<path class="st0" d="M267.1,68.7h1.9v11.4h5.9v1.7h-7.8V68.7z"/>
	<path class="st0" d="M284.2,73.1c1,0,1.8,0.4,2.4,1.1c0.6,0.7,0.9,1.6,0.9,2.8v0.3h-5.3c0,0.8,0.2,1.5,0.4,2c0.2,0.5,0.6,0.8,0.9,1
		c0.4,0.2,0.8,0.3,1.3,0.3c0.8,0,1.7-0.3,2.6-1v1.7c-0.5,0.3-1,0.6-1.4,0.7c-0.4,0.1-0.9,0.2-1.5,0.2c-0.6,0-1.2-0.1-1.7-0.4
		c-0.5-0.2-0.9-0.6-1.2-1c-1.1,0.9-2.2,1.3-3.2,1.3c-0.7,0-1.3-0.2-1.7-0.6c-0.4-0.4-0.6-0.9-0.6-1.6c0-0.5,0.1-0.9,0.4-1.3
		s0.7-0.7,1.4-1c0.6-0.3,1.1-0.4,1.4-0.5l1.2-0.4v-0.3c0-0.6-0.1-1.1-0.3-1.4s-0.6-0.4-1.1-0.4c-1,0-1.9,0.5-2.8,1.4V74
		c0.5-0.4,0.9-0.6,1.4-0.7c0.4-0.1,0.9-0.2,1.4-0.2c1.1,0,2,0.4,2.6,1.1c0.5-0.4,0.9-0.7,1.3-0.9C283.3,73.1,283.8,73.1,284.2,73.1z
		 M280.5,80.4v-2.8l-0.9,0.4c-0.6,0.2-1.1,0.5-1.3,0.7c-0.3,0.2-0.4,0.5-0.4,0.8c0,0.4,0.1,0.7,0.4,1c0.2,0.3,0.5,0.4,0.9,0.4
		c0.2,0,0.4,0,0.6-0.1C279.8,80.7,280.1,80.6,280.5,80.4z M282.4,76.1h3.4c-0.1-0.5-0.2-0.9-0.5-1.1c-0.3-0.3-0.7-0.4-1.1-0.4
		C283.3,74.5,282.7,75.1,282.4,76.1z"/>
	<path class="st0" d="M295.6,68.7h1.7v13.2h-3.7c-1.3,0-2.3-0.4-3.1-1.2s-1.1-1.9-1.1-3.3c0-1.3,0.4-2.3,1.2-3.1
		c0.8-0.8,1.8-1.2,3.1-1.2c0.6,0,1.2,0.1,1.9,0.4V68.7z M295.6,80.4v-5.5c-0.5-0.3-1.1-0.4-1.6-0.4c-0.9,0-1.5,0.3-2,0.8
		c-0.5,0.6-0.8,1.3-0.8,2.3c0,0.9,0.2,1.6,0.7,2.1c0.3,0.3,0.5,0.5,0.8,0.6s0.8,0.2,1.6,0.2H295.6z"/>
	<path class="st0" d="M307.3,77.7h-6.1c0,0.8,0.3,1.5,0.8,2s1.2,0.7,2,0.7c1.1,0,2.2-0.4,3.1-1.1V81c-0.5,0.4-1,0.6-1.6,0.8
		c-0.5,0.2-1.1,0.2-1.8,0.2c-1,0-1.7-0.2-2.3-0.6c-0.6-0.4-1.1-0.9-1.4-1.6c-0.4-0.7-0.5-1.4-0.5-2.3c0-1.3,0.4-2.4,1.1-3.2
		s1.7-1.2,2.9-1.2c1.1,0,2.1,0.4,2.8,1.2c0.7,0.8,1,1.9,1,3.2V77.7z M301.2,76.7h4.4c0-0.7-0.2-1.2-0.6-1.6
		c-0.4-0.4-0.9-0.6-1.5-0.6s-1.1,0.2-1.5,0.6C301.6,75.5,301.3,76,301.2,76.7z"/>
	<path class="st0" d="M311.3,73.2v2l0.1-0.2c0.8-1.3,1.7-2,2.5-2c0.6,0,1.3,0.3,2,1l-0.9,1.5c-0.6-0.6-1.1-0.8-1.7-0.8
		c-0.6,0-1,0.3-1.4,0.8c-0.4,0.5-0.6,1.2-0.6,1.9v4.5h-1.7v-8.7H311.3z"/>
	<path class="st0" d="M317.3,68.7h1.7v5.6c0.7-0.9,1.6-1.3,2.7-1.3c0.6,0,1.1,0.1,1.6,0.4c0.5,0.3,0.8,0.7,1,1.2
		c0.2,0.5,0.3,1.3,0.3,2.3v4.9h-1.7v-5.4c0-0.6-0.2-1.1-0.5-1.5c-0.3-0.4-0.7-0.6-1.2-0.6c-0.4,0-0.7,0.1-1.1,0.3s-0.7,0.5-1.1,1
		v6.2h-1.7V68.7z"/>
	<path class="st0" d="M332.7,76.7v3.7c0,0.3,0.1,0.4,0.3,0.4c0.2,0,0.5-0.2,1-0.5v1c-0.4,0.3-0.7,0.4-0.9,0.5
		c-0.2,0.1-0.5,0.1-0.7,0.1c-0.7,0-1.2-0.3-1.3-0.9c-0.7,0.6-1.5,0.8-2.3,0.8c-0.6,0-1.1-0.2-1.5-0.6c-0.4-0.4-0.6-0.9-0.6-1.5
		c0-0.5,0.2-1,0.6-1.5c0.4-0.4,0.9-0.8,1.7-1l2.2-0.8v-0.5c0-1-0.5-1.6-1.6-1.6c-0.9,0-1.8,0.5-2.7,1.5v-1.9
		c0.7-0.8,1.6-1.2,2.9-1.2c0.9,0,1.7,0.2,2.3,0.7c0.2,0.2,0.4,0.4,0.5,0.6c0.2,0.3,0.2,0.5,0.3,0.8C332.7,75.5,332.7,76,332.7,76.7z
		 M331,80.2v-2.6l-1.1,0.4c-0.6,0.2-1,0.5-1.2,0.7c-0.2,0.2-0.4,0.5-0.4,0.9c0,0.4,0.1,0.6,0.3,0.9c0.2,0.2,0.5,0.3,0.9,0.3
		C330.1,80.8,330.6,80.6,331,80.2z M330.2,67.8c0.5,0,0.9,0.2,1.2,0.5c0.3,0.3,0.5,0.8,0.5,1.3s-0.2,0.9-0.5,1.3
		c-0.3,0.4-0.8,0.5-1.3,0.5c-0.5,0-0.9-0.2-1.3-0.5c-0.3-0.3-0.5-0.8-0.5-1.3c0-0.5,0.2-0.9,0.5-1.3C329.3,68,329.7,67.8,330.2,67.8
		z M330.1,68.6c-0.3,0-0.6,0.1-0.8,0.3s-0.3,0.4-0.3,0.7c0,0.3,0.1,0.6,0.3,0.8s0.5,0.3,0.8,0.3c0.3,0,0.6-0.1,0.8-0.3
		c0.2-0.2,0.3-0.5,0.3-0.8c0-0.3-0.1-0.5-0.3-0.7C330.7,68.7,330.5,68.6,330.1,68.6z"/>
	<path class="st0" d="M337.5,73.2v1.1c0.8-0.8,1.6-1.3,2.6-1.3c0.5,0,1,0.1,1.5,0.4c0.5,0.3,0.8,0.7,1.1,1.1
		c0.2,0.5,0.4,1.3,0.4,2.3v5h-1.7V77c0-0.9-0.1-1.5-0.4-1.9c-0.3-0.4-0.7-0.6-1.4-0.6c-0.8,0-1.5,0.4-2.1,1.2v6.2h-1.8v-8.7H337.5z"
		/>
	<path class="st0" d="M351.5,68.7h1.7v13.2h-3.7c-1.3,0-2.3-0.4-3.1-1.2s-1.1-1.9-1.1-3.3c0-1.3,0.4-2.3,1.2-3.1
		c0.8-0.8,1.8-1.2,3.1-1.2c0.6,0,1.2,0.1,1.9,0.4V68.7z M351.5,80.4v-5.5c-0.5-0.3-1.1-0.4-1.6-0.4c-0.9,0-1.5,0.3-2,0.8
		c-0.5,0.6-0.8,1.3-0.8,2.3c0,0.9,0.2,1.6,0.7,2.1c0.3,0.3,0.5,0.5,0.8,0.6s0.8,0.2,1.6,0.2H351.5z"/>
	<path class="st0" d="M361.2,73.2h1.9l-3.8,8.8h-0.6l-3.9-8.8h1.9l2.3,5.3L361.2,73.2z"/>
	<path class="st0" d="M372.2,73.1c1,0,1.8,0.4,2.4,1.1c0.6,0.7,0.9,1.6,0.9,2.8v0.3h-5.3c0,0.8,0.2,1.5,0.4,2c0.2,0.5,0.6,0.8,0.9,1
		c0.4,0.2,0.8,0.3,1.3,0.3c0.8,0,1.7-0.3,2.6-1v1.7c-0.5,0.3-1,0.6-1.4,0.7c-0.4,0.1-0.9,0.2-1.5,0.2c-0.6,0-1.2-0.1-1.7-0.4
		c-0.5-0.2-0.9-0.6-1.2-1c-1.1,0.9-2.2,1.3-3.2,1.3c-0.7,0-1.3-0.2-1.7-0.6c-0.4-0.4-0.6-0.9-0.6-1.6c0-0.5,0.1-0.9,0.4-1.3
		s0.7-0.7,1.4-1c0.6-0.3,1.1-0.4,1.4-0.5l1.2-0.4v-0.3c0-0.6-0.1-1.1-0.3-1.4s-0.6-0.4-1.1-0.4c-1,0-1.9,0.5-2.8,1.4V74
		c0.5-0.4,0.9-0.6,1.4-0.7c0.4-0.1,0.9-0.2,1.4-0.2c1.1,0,2,0.4,2.6,1.1c0.5-0.4,0.9-0.7,1.3-0.9C371.3,73.1,371.7,73.1,372.2,73.1z
		 M368.4,80.4v-2.8l-0.9,0.4c-0.6,0.2-1.1,0.5-1.3,0.7c-0.3,0.2-0.4,0.5-0.4,0.8c0,0.4,0.1,0.7,0.4,1c0.2,0.3,0.5,0.4,0.9,0.4
		c0.2,0,0.4,0,0.6-0.1C367.8,80.7,368.1,80.6,368.4,80.4z M370.3,76.1h3.4c-0.1-0.5-0.2-0.9-0.5-1.1c-0.3-0.3-0.7-0.4-1.1-0.4
		C371.3,74.5,370.7,75.1,370.3,76.1z"/>
	<path class="st0" d="M379.6,73.2v2l0.1-0.2c0.8-1.3,1.7-2,2.5-2c0.6,0,1.3,0.3,2,1l-0.9,1.5c-0.6-0.6-1.1-0.8-1.7-0.8
		c-0.6,0-1,0.3-1.4,0.8c-0.4,0.5-0.6,1.2-0.6,1.9v4.5h-1.7v-8.7H379.6z"/>
	<path class="st0" d="M385.7,68.7h1.7v13.2h-1.7V68.7z M391.3,73.2h2l-3.7,4.2l4.4,4.4h-2.3l-4.3-4.4L391.3,73.2z"/>
</g>
</svg>
