<?xml version="1.0" encoding="utf-8"?>
<!-- Generator: Adobe Illustrator 24.0.1, SVG Export Plug-In . SVG Version: 6.00 Build 0)  -->
<svg version="1.1" id="Layer_1" xmlns="http://www.w3.org/2000/svg" xmlns:xlink="http://www.w3.org/1999/xlink" x="0px" y="0px"
	 viewBox="0 0 391.5 113" style="enable-background:new 0 0 391.5 113;" xml:space="preserve">
<style type="text/css">
	.st0{fill:#FFFFFF;}
	.st1{fill:none;stroke:#FFFFFF;stroke-width:4;stroke-miterlimit:10;}
</style>
<title>Skotteknive - Logo</title>
<path class="st0" d="M141.8,50.2l-4-3c-2.1-1.5-4-3.4-5.4-5.5c-1.1-1.9-1.6-4.1-1.6-6.3c-0.1-3.2,0.9-6.3,3-8.7
	c2-2.2,4.9-3.4,7.9-3.3c3.1,0,6.1,1.1,8.5,3.2v7.3c-2.7-3.1-5.5-4.7-8.6-4.7c-1.5-0.1-3.1,0.5-4.3,1.5c-1.1,0.9-1.7,2.3-1.7,3.7
	c0,1.4,0.4,2.7,1.2,3.8c1.1,1.5,2.4,2.7,3.9,3.7l4,2.9c4.5,3.3,6.8,7.5,6.8,12.5c0.1,3.2-0.9,6.4-3,8.8c-1.9,2.2-4.8,3.5-7.7,3.4
	c-3.7,0-7.3-1.5-10-4.1v-8.2c2.9,4.4,6.2,6.6,9.9,6.6c1.6,0,3.1-0.6,4.1-1.7c1.1-1.1,1.8-2.6,1.8-4.2
	C146.6,55.2,145,52.6,141.8,50.2z"/>
<path class="st0" d="M156.8,24h4.8v45h-4.8V24z M172.6,39.4h5.7l-10.4,14.5L180.4,69h-6.5l-12.2-15.1L172.6,39.4z"/>
<path class="st0" d="M192.7,39.3c3.6-0.1,7,1.6,9.2,4.4c2.5,3.1,3.8,7,3.7,11c0.1,3.9-1.2,7.7-3.7,10.7c-2.3,2.8-5.8,4.3-9.4,4.3
	c-3.5,0-6.9-1.5-9.1-4.3c-2.5-3-3.8-6.8-3.7-10.8c-0.1-4,1.2-7.8,3.7-10.9C185.6,40.8,189.1,39.2,192.7,39.3z M192.4,44.6
	c-2.2,0-4.3,1-5.7,2.8c-1.5,2-2.3,4.5-2.2,7.1c-0.1,2.5,0.7,5,2.3,7c1.4,1.8,3.6,2.7,5.8,2.7c2.3,0.1,4.4-1,5.8-2.7
	c1.6-2,2.4-4.5,2.3-7c0.1-2.5-0.7-5-2.4-7C196.9,45.6,194.7,44.5,192.4,44.6L192.4,44.6z"/>
<path class="st0" d="M207.5,44.1l9-10.8v6.1h7.7v5.3h-7.7v14.5c0,3.4,1.2,5.1,3.5,5.1c2-0.1,3.9-0.8,5.5-2.1v5.5
	c-1.8,1.2-3.9,1.9-6.1,1.9c-2.1,0-4.1-0.8-5.5-2.4c-0.5-0.5-0.8-1-1.1-1.6c-0.3-0.7-0.6-1.5-0.8-2.3c-0.3-1.8-0.4-3.6-0.3-5.5V44.6
	h-4.2L207.5,44.1z"/>
<path class="st0" d="M225.5,44.1l9-10.8v6.1h7.7v5.3h-7.7v14.5c0,3.4,1.1,5.1,3.5,5.1c2-0.1,3.9-0.8,5.5-2.1v5.5
	c-1.8,1.2-3.9,1.9-6.1,1.9c-2.1,0-4.1-0.8-5.5-2.4c-0.5-0.5-0.8-1-1.1-1.6c-0.4-0.7-0.6-1.5-0.8-2.3c-0.3-1.8-0.4-3.6-0.3-5.5V44.6
	h-4.2L225.5,44.1z"/>
<path class="st0" d="M267.7,54.7h-17.1c0,2.5,0.8,4.8,2.3,6.8c1.4,1.6,3.4,2.6,5.6,2.5c3.3,0,6.4-1.3,8.8-3.6v5.8
	c-1.3,1.1-2.8,2-4.4,2.6c-1.6,0.5-3.4,0.8-5.1,0.8c-2.3,0.1-4.6-0.6-6.5-2c-1.8-1.5-3.1-3.4-4-5.5c-1.1-2.5-1.6-5.3-1.5-8
	c0-4.5,1.1-8.2,3.1-11c1.8-2.7,4.9-4.3,8.2-4.2c3.1,0,6,1.5,7.7,4.1c1.9,2.8,2.9,6.4,2.9,11.1L267.7,54.7z M250.7,51.2h12.2
	c0-1.9-0.6-3.8-1.7-5.4c-1-1.3-2.5-2-4.1-1.9c-1.6,0-3.2,0.7-4.2,1.9C251.6,47.3,250.9,49.2,250.7,51.2z"/>
<path class="st0" d="M294.4,24h6.6l-16,21.4l20,23.7h-7.3l-18.9-22.3V69h-5.3V24h5.3v20.6L294.4,24z"/>
<path class="st0" d="M313.2,39.3v3.8c2.2-2.9,4.6-4.4,7.3-4.4c1.5,0,3,0.5,4.2,1.4c1.3,1,2.4,2.4,3,3.9c0.7,1.7,1,4.3,1,7.9V69h-4.8
	V52.1c0-3-0.4-5.2-1.1-6.5c-0.8-1.3-2.3-2.1-3.8-1.9c-2.3,0-4.2,1.4-5.8,4.2V69h-4.9V39.3H313.2z"/>
<path class="st0" d="M337.9,26.9c0.8,0,1.5,0.4,2,1c0.6,0.7,0.9,1.6,0.9,2.5c0,0.9-0.3,1.8-0.9,2.5c-0.5,0.6-1.2,1-2,1
	c-0.8,0-1.5-0.4-2-1c-1.1-1.4-1.1-3.4,0-4.8C336.4,27.3,337.1,26.9,337.9,26.9z M335.6,39.3h4.8V69h-4.8V39.3z"/>
<path class="st0" d="M362.2,39.3h5.2l-10.7,30.2h-1.6l-11-30.2h5.3l6.6,18.3L362.2,39.3z"/>
<path class="st0" d="M390.7,54.7h-17.1c0,2.5,0.8,4.8,2.3,6.8c1.4,1.6,3.4,2.6,5.6,2.5c3.3,0,6.4-1.3,8.8-3.6v5.8
	c-1.3,1.1-2.8,2-4.4,2.6c-1.6,0.5-3.4,0.8-5.1,0.8c-2.3,0.1-4.6-0.6-6.5-2c-1.8-1.5-3.1-3.4-4-5.5c-1.1-2.5-1.6-5.3-1.5-8
	c0-4.5,1.1-8.2,3.1-11c1.8-2.7,4.9-4.3,8.2-4.2c3.1,0,6,1.5,7.7,4.1c1.9,2.8,2.9,6.4,2.9,11.1L390.7,54.7z M373.7,51.2h12.2
	c0-1.9-0.6-3.8-1.7-5.4c-1-1.3-2.5-2-4.1-1.9c-1.6,0-3.2,0.7-4.3,1.9C374.6,47.3,373.8,49.2,373.7,51.2L373.7,51.2z"/>
<path class="st0" d="M55.8,106.5c1-3.4,1.8-7,2.3-10.5c0.8-5.7,0.9-11.5,0.4-17.3c-0.8-7.2-1.2-10.8-1.8-13.2
	c-0.2-0.9-0.3-1.8-0.3-2.7c0.2-2.1,0.7-4.1,1.5-6.1l0.2-0.6c7.1-3.5,11.6-10.7,11.7-18.6c0-4.2-1.2-8.3-3.4-11.8
	c-1.4-2.2-3.2-4-5.3-5.4c-0.4-0.1-0.7-0.3-1-0.6c-0.1-0.1-0.2-0.2-0.2-0.3l8.8-12.7c-4.6,3.5-8.2,6.2-10.4,7.9
	c-0.2,0.2-1.1,0.8-1.4,0.5s0.5-2,0.8-5.3c0-0.7,0.1-1.4,0.2-2c0.3-1.5,1-2.1,1.7-3.9c0.3-0.7,0.5-1.4,0.6-2.1l-9.6,12.1l0.1-11.3
	c-3.3,7.2-4.5,10-4.7,10.6c0,0.4-0.2,0.8-0.6,1.1c-0.1,0.1-0.2,0.1-0.3,0.2L44.2,0c-1,7.4-1.5,10.2-1.4,10.7c0,0.1,0.1,0.6-0.1,0.7
	s-0.2,0-0.3-0.1l-1.9-2.9l-1.7-6.6c-0.6,5-0.6,7-0.5,8c0.2,1,0.1,2.1-0.1,3.1c0,0.2-0.1,0.4-0.1,0.5l-1.4-2.7
	c1.7,4.3,1.5,5.4,1.1,5.7c-0.2,0.1-0.3,0.1-0.5,0l-2.5-5.8c0.1,0.6,0.1,1.2,0.1,1.8c0,1.1-0.1,2.4-0.3,2.5c-0.5,0.1-1.1-4-3.8-9.1
	c-0.3-0.5-0.5-1-0.7-1.2c1.7,6.8,2.8,10.9,3.7,13.6c0.1,0.4,0.5,1.4,0.3,1.5c-0.4,0.2-2.8-3.3-5.1-6.7c-1.6-2.7-3.6-5.2-5.9-7.5
	c-0.3-0.3-0.6-0.6-0.8-0.8c5.8,9.5,9.9,16.5,10.3,17c0.2,0.4,0.4,0.8,0.5,1.2c0,0.1,0.1,0.3,0.1,0.5c-1.4-0.3-2.8-0.9-4-1.6
	c-1-0.6-1.7-1.2-4.1-2.8l-1.3-0.8c2.1,2.5,4.4,4.7,7,6.7l0.7,0.5c-2.4,3.4-3.7,7.4-3.9,11.6c-0.1,5.8,2.1,11.4,6.1,15.5
	c0.6,0.7,6.3,6.2,13.9,6.2h0.3c0.3,1.4,0.9,2.6,1.8,3.7c0.5,0.5,0.9,1.2,1.3,1.8l0.1,0.2c0.3,1.4,0.7,3.5,1,5.9
	c0.6,4.2,0.8,8.5,0.9,12.8c0.2,4,0.1,8-0.4,12c-0.5,3.5-1.3,7-2.4,10.3c-0.2,0.4-0.2,0.9-0.1,1.4c0.2,1,0.8,1.8,1.6,2.3
	c0.8,0.4,1.7,0.5,2.5,0.2c0.1,0,0.3-0.1,0.4-0.2c0.5-0.3,1-0.8,1.2-1.4L55.8,106.5z"/>
<path class="st0" d="M60.7,85.2c0.6-1.4,1.3-2.7,2.1-4c1.5-2.4,1.8-5,2-7.4c0.3-3,0-6-0.9-8.9l0.5,0.3c3.3,1.3,7.2,0.1,9.5-1.5
	c5.2-3.5,4.8-10.5,4.7-10.8l0.4,0.1c1.8,0.6,3.8,1,5.7,1.3c2,0.1,4.1-0.3,5.9-1.3c2.8-1.6,4.8-4.4,5.3-7.6c0.1-0.6,0.1-1.3,0.1-1.9
	l0.2,0.2c0.2,0.3,0.5,0.6,0.6,0.9c0.7,1,1.6,1.9,2.6,2.7c1.8,1.3,4,2,6.2,2.1c1.7,0.1,3.5,0,5.2-0.2c1.5-0.1,3-0.3,3.9-0.4
	c-0.4,0.1-1,0.3-1.7,0.4c-1.3,0.3-2.2,0.4-2.3,0.5c-4.1,1-8.1,2.4-11.9,4.2c-4.6,2.1-8.9,4.5-13.1,7.4c-6.3,4.4-10.2,8.5-15,13.5
	c-2.9,3-5.6,6.1-8,9.5c-1.1,1.6-2,2.7-2.5,3.7l-0.4,0.6c0-0.3,0.1-0.8,0.2-1.3C60.2,86.6,60.4,85.9,60.7,85.2z"/>
<path class="st0" d="M115.3,49.4c-0.9,0.2-2.3,0.5-4,0.9c-8.2,2.3-16,5.9-23,10.9C74.1,70.8,64.2,84,60.8,88.8
	c0.3-0.3,0.9-0.8,1.6-1.4c1.8-1.6,3.4-3.3,5-5.1c4.9-5.4,12-8.5,13.7-9.2c1.7-0.8,3.5-1.3,5.4-1.5c2.3-0.2,4.6,0.1,6.7,0.9
	c0-0.2,0-0.5,0.1-0.8c0.1-1.7,0.3-3.7,0.3-4.3c0.3-2,1.1-3.8,2.3-5.4c1.9-2.2,4.5-3.7,7.4-4.2c2.2-0.5,4.5-0.4,6.7,0.3
	c0-0.1,0-0.3,0-0.6c-0.1-1-0.1-2.1,0-3.1c0.3-2,2.7-3.6,3.3-3.9L115.3,49.4z"/>
<path class="st0" d="M49.9,93.5c-0.4-1.5-0.9-2.9-1.6-4.3c-1.2-2.6-1.2-5.2-1.1-7.6c0.1-3,0.8-6,2-8.7c-0.1,0-0.3,0.1-0.6,0.2
	c-3.4,0.9-7.1-0.8-9.2-2.6c-4.7-4.1-3.5-11-3.4-11.3l-0.5,0.1c-1.9,0.4-3.8,0.6-5.8,0.6c-2-0.1-4-0.8-5.6-2
	c-2.6-1.9-4.2-4.9-4.3-8.2c0-0.6,0-1.3,0.1-1.9c-0.1,0.1-0.2,0.1-0.2,0.2c-0.3,0.3-0.5,0.6-0.8,0.9c-0.8,0.9-1.8,1.7-2.9,2.4
	c-2,1-4.2,1.5-6.4,1.4c-1.7-0.1-3.5-0.4-5.2-0.8c-1.5-0.3-3-0.7-3.8-0.9c0.4,0.2,0.9,0.4,1.6,0.6c1.2,0.4,2.1,0.7,2.2,0.8
	c4,1.4,7.8,3.3,11.3,5.6c4.3,2.6,8.3,5.7,12,9C33.6,72,37,76.5,41.2,82c2.5,3.3,4.8,6.8,6.8,10.4c0.9,1.7,1.6,2.9,2.1,3.9l0.3,0.6
	c0-0.4,0-0.8-0.1-1.4C50.2,94.9,50.1,94.2,49.9,93.5z"/>
<path class="st0" d="M0,51.4c0.9,0.3,2.3,0.8,3.8,1.4c7.9,3.3,15.1,7.9,21.5,13.6c13,11.2,21.3,25.5,24.1,30.7
	c-0.3-0.3-0.8-0.9-1.4-1.6c-2.3-2.8-3.8-4.9-4.3-5.6c-4.2-5.9-10.9-9.9-12.5-10.8c-1.6-1-3.4-1.7-5.2-2.1c-2.2-0.5-4.6-0.4-6.8,0.1
	c0-0.2,0-0.5,0-0.8c0.1-1.7,0.2-3.7,0.2-4.3c-0.1-2-0.6-3.9-1.6-5.6c-1.6-2.4-4-4.2-6.8-5.1c-2.2-0.7-4.5-0.9-6.7-0.5l0.1-0.5
	c0.2-1,0.4-2,0.4-3.1c0-2-2.3-3.9-2.8-4.3L0,51.4z"/>
<line class="st1" x1="122.8" y1="0" x2="122.8" y2="113"/>
<path class="st0" d="M140.2,78.8h1.7v11.6h-1.7v-5h-6.5v5h-1.7V78.8h1.7v5h6.5L140.2,78.8z"/>
<path class="st0" d="M149.3,85.8v3.2c0,0.3,0.1,0.4,0.3,0.4c0.3-0.1,0.6-0.2,0.9-0.4v1c-0.3,0.2-0.5,0.3-0.8,0.4
	c-0.2,0.1-0.4,0.1-0.6,0.1c-0.6,0-1-0.3-1.1-0.8c-0.6,0.5-1.3,0.7-2.1,0.8c-0.5,0-1-0.2-1.3-0.5c-0.4-0.4-0.5-0.8-0.5-1.3
	c0-0.5,0.2-0.9,0.5-1.3c0.4-0.4,0.9-0.7,1.5-0.9l1.9-0.7v-0.4c0.1-0.7-0.4-1.3-1-1.4c-0.1,0-0.2,0-0.3,0c-0.9,0.1-1.8,0.5-2.4,1.3
	v-1.7c0.6-0.7,1.6-1.1,2.5-1c0.7,0,1.4,0.2,2,0.7c0.2,0.2,0.3,0.3,0.4,0.6c0.1,0.2,0.2,0.4,0.3,0.7C149.3,85,149.3,85.4,149.3,85.8z
	 M147.8,88.9v-2.3l-1,0.4c-0.4,0.1-0.8,0.4-1.1,0.6c-0.2,0.2-0.3,0.5-0.3,0.8c0,0.3,0.1,0.6,0.3,0.8c0.2,0.2,0.5,0.3,0.8,0.3
	C147,89.5,147.5,89.3,147.8,88.9z M147.1,78c0.9,0,1.6,0.7,1.6,1.6c0,0.9-0.7,1.6-1.6,1.6c-0.9,0-1.6-0.7-1.6-1.6
	c0-0.4,0.2-0.8,0.5-1.1C146.2,78.2,146.7,78,147.1,78z M147.1,78.7c-0.3,0-0.5,0.1-0.7,0.3c-0.2,0.2-0.3,0.4-0.3,0.7
	c0.1,0.5,0.5,1,1.1,0.9c0.2,0,0.4-0.1,0.5-0.2c0.4-0.3,0.4-0.9,0-1.3c0,0,0,0,0,0C147.6,78.7,147.3,78.6,147.1,78.7L147.1,78.7z"/>
<path class="st0" d="M153.5,82.8v1c0.6-0.7,1.4-1.1,2.3-1.1c0.5,0,0.9,0.1,1.3,0.4c0.4,0.2,0.7,0.6,0.9,1c0.2,0.6,0.4,1.3,0.3,2v4.4
	h-1.5V86c0-0.6-0.1-1.2-0.4-1.7c-0.3-0.4-0.7-0.6-1.2-0.5c-0.7,0-1.4,0.4-1.8,1.1v5.4H152v-7.6L153.5,82.8z"/>
<path class="st0" d="M165.9,78.8h1.5v11.6h-3.2c-1,0-2-0.3-2.7-1.1c-0.7-0.8-1.1-1.8-1-2.9c0-1,0.3-2,1.1-2.8
	c0.7-0.7,1.7-1.1,2.7-1.1c0.6,0,1.1,0.1,1.7,0.3L165.9,78.8z M165.9,89.1v-4.8c-0.4-0.2-0.9-0.3-1.4-0.3c-0.7,0-1.3,0.2-1.8,0.7
	c-0.5,0.6-0.7,1.3-0.7,2c0,0.7,0.2,1.3,0.6,1.8c0.2,0.2,0.5,0.4,0.7,0.5c0.5,0.1,0.9,0.2,1.4,0.1L165.9,89.1z"/>
<path class="st0" d="M169.8,78.8h1.5v11.6h-1.5V78.8z"/>
<path class="st0" d="M178.5,85.8v3.2c0,0.3,0.1,0.4,0.3,0.4c0.3-0.1,0.6-0.2,0.9-0.4v1c-0.3,0.2-0.5,0.3-0.8,0.4
	c-0.2,0.1-0.4,0.1-0.7,0.1c-0.6,0-1-0.3-1.1-0.8c-0.6,0.5-1.3,0.7-2.1,0.8c-1,0-1.8-0.8-1.9-1.8c0,0,0-0.1,0-0.1
	c0-0.5,0.2-0.9,0.5-1.3c0.4-0.4,0.9-0.7,1.5-0.9l1.9-0.7v-0.4c0.1-0.7-0.4-1.3-1-1.4c-0.1,0-0.2,0-0.4,0c-0.9,0.1-1.8,0.5-2.4,1.3
	v-1.7c0.6-0.7,1.6-1.1,2.5-1c0.7,0,1.4,0.2,2,0.7c0.2,0.2,0.3,0.3,0.4,0.6c0.1,0.2,0.2,0.4,0.3,0.7C178.5,85,178.5,85.4,178.5,85.8z
	 M177,88.9v-2.3l-1,0.4c-0.4,0.1-0.8,0.3-1.1,0.6c-0.2,0.2-0.3,0.5-0.3,0.8c0,0.3,0.1,0.6,0.3,0.8c0.2,0.2,0.5,0.3,0.8,0.3
	C176.2,89.5,176.6,89.3,177,88.9z"/>
<path class="st0" d="M185.3,82.8h1.6l-3.4,7.8H183l-3.5-7.8h1.7l2.1,4.7L185.3,82.8z"/>
<path class="st0" d="M194.4,86.7h-5.4c0,0.7,0.3,1.3,0.7,1.8c0.5,0.4,1.1,0.7,1.7,0.6c1,0,2-0.3,2.8-0.9v1.5
	c-0.4,0.3-0.9,0.5-1.4,0.7c-0.5,0.1-1.1,0.2-1.6,0.2c-0.7,0-1.4-0.2-2-0.5c-0.5-0.4-1-0.8-1.3-1.4c-0.3-0.6-0.5-1.3-0.5-2
	c0-1,0.3-2.1,1-2.8c0.7-0.7,1.6-1.1,2.6-1.1c0.9,0,1.8,0.4,2.4,1.1c0.6,0.8,1,1.8,0.9,2.8L194.4,86.7z M189.1,85.8h3.8
	c0-0.5-0.2-1-0.5-1.4c-0.3-0.3-0.8-0.5-1.3-0.5c-0.5,0-1,0.2-1.3,0.5C189.4,84.8,189.2,85.3,189.1,85.8z"/>
<path class="st0" d="M201.4,78.8h1.5v11.6h-3.2c-1,0-2-0.3-2.7-1.1c-0.7-0.8-1.1-1.8-1-2.9c0-1,0.3-2,1.1-2.8
	c0.7-0.7,1.7-1.1,2.7-1.1c0.6,0,1.1,0.1,1.7,0.3L201.4,78.8z M201.4,89.1v-4.8c-0.4-0.2-0.9-0.3-1.4-0.3c-0.7,0-1.3,0.2-1.8,0.7
	c-0.5,0.6-0.7,1.3-0.7,2c0,0.7,0.2,1.3,0.6,1.8c0.2,0.2,0.5,0.4,0.7,0.5c0.5,0.1,0.9,0.2,1.4,0.1L201.4,89.1z"/>
<path class="st0" d="M211.8,86.7h-5.4c0,0.7,0.3,1.3,0.7,1.8c0.5,0.4,1.1,0.7,1.7,0.6c1,0,2-0.3,2.8-0.9v1.5
	c-0.4,0.3-0.9,0.5-1.4,0.7c-0.5,0.1-1.1,0.2-1.6,0.2c-0.7,0-1.4-0.2-2-0.5c-0.5-0.4-1-0.8-1.3-1.4c-0.3-0.6-0.5-1.3-0.5-2
	c0-1,0.3-2.1,1-2.8c0.7-0.7,1.6-1.1,2.6-1.1c0.9,0,1.8,0.4,2.4,1.1c0.6,0.8,1,1.8,0.9,2.8L211.8,86.7z M206.4,85.8h3.9
	c0-0.5-0.2-1-0.5-1.4c-0.3-0.3-0.8-0.5-1.3-0.5c-0.5,0-1,0.2-1.3,0.5C206.7,84.8,206.5,85.3,206.4,85.8L206.4,85.8z"/>
<path class="st0" d="M225.4,78.8h2.1l-5,5.5l6.3,6.1h-2.3l-5.9-5.7v5.7h-1.7V78.8h1.7v5.3L225.4,78.8z"/>
<path class="st0" d="M231.6,82.8v1c0.6-0.7,1.4-1.1,2.3-1.1c0.5,0,0.9,0.1,1.3,0.4c0.4,0.2,0.7,0.6,0.9,1c0.2,0.6,0.4,1.3,0.3,2v4.4
	h-1.5V86c0.1-0.6-0.1-1.2-0.4-1.7c-0.3-0.4-0.7-0.6-1.2-0.5c-0.8,0-1.5,0.5-1.8,1.1v5.4H230v-7.6L231.6,82.8z"/>
<path class="st0" d="M239.6,79.6c0.2,0,0.5,0.1,0.6,0.3c0.2,0.2,0.3,0.4,0.3,0.6c0,0.5-0.4,0.9-0.9,0.9c0,0,0,0,0,0
	c-0.5,0-0.9-0.4-0.9-0.9c0-0.2,0.1-0.5,0.3-0.6C239.1,79.7,239.3,79.6,239.6,79.6z M238.8,82.8h1.5v7.6h-1.5V82.8z"/>
<path class="st0" d="M247.5,82.8h1.6l-3.4,7.8h-0.5l-3.5-7.8h1.6l2.1,4.7L247.5,82.8z"/>
<path class="st0" d="M256.6,86.7h-5.4c0,0.7,0.3,1.3,0.7,1.8c0.5,0.4,1.1,0.7,1.8,0.6c1,0,2-0.3,2.8-0.9v1.5
	c-0.4,0.3-0.9,0.5-1.4,0.7c-0.5,0.1-1.1,0.2-1.6,0.2c-0.7,0-1.4-0.2-2-0.5c-0.5-0.4-1-0.8-1.3-1.4c-0.3-0.6-0.5-1.3-0.5-2
	c0-1,0.3-2.1,1-2.8c0.7-0.7,1.6-1.1,2.6-1.1c0.9,0,1.8,0.4,2.4,1.1c0.6,0.8,1,1.8,0.9,2.8L256.6,86.7z M251.3,85.8h3.9
	c0-0.5-0.2-1-0.5-1.4c-0.3-0.3-0.8-0.5-1.3-0.5c-0.5,0-1,0.2-1.3,0.5C251.6,84.8,251.4,85.3,251.3,85.8z"/>
<path class="st0" d="M270.9,90.4l-1.4-1.6c-0.1,0.1-0.3,0.3-0.6,0.5l0,0c-0.4,0.4-0.9,0.6-1.5,0.8c-0.5,0.2-1.1,0.3-1.6,0.3
	c-0.7,0-1.5-0.3-2-0.8c-0.5-0.5-0.9-1.2-0.8-1.9c0-0.5,0.1-1,0.4-1.5c0.4-0.5,0.8-1,1.3-1.3l0,0c0.3-0.2,0.7-0.4,1-0.6
	c-0.8-0.7-1.2-1.7-1.3-2.7c0-0.7,0.3-1.4,0.8-1.9c0.6-0.5,1.3-0.8,2.1-0.7c0.8,0,1.5,0.2,2.1,0.7c0.5,0.5,0.8,1.1,0.8,1.8
	c0,1-0.7,2-2,3l-0.1,0.1l1.6,1.9c0.5-0.6,0.9-1.2,1.2-1.9h1.7c-0.5,1.1-1.1,2.1-1.9,3l2.4,2.7L270.9,90.4z M268.1,88l0.4-0.3
	l-1.9-2.2l-0.7,0.5c-0.9,0.6-1.3,1.2-1.3,1.8c0,0.3,0.2,0.6,0.4,0.8c0.3,0.2,0.6,0.3,1,0.3c0.4,0,0.7-0.1,1-0.3
	C267.5,88.5,267.8,88.3,268.1,88L268.1,88z M267,83.5l0.6-0.4c0.5-0.3,0.9-0.8,0.9-1.4c0-0.3-0.1-0.6-0.4-0.8
	c-0.5-0.4-1.3-0.4-1.8,0c-0.2,0.2-0.4,0.5-0.4,0.8c0,0.4,0.1,0.7,0.3,1C266.5,82.9,266.7,83.3,267,83.5z"/>
<path class="st0" d="M279.6,78.8h1.7v10.1h5.2v1.5h-6.9V78.8z"/>
<path class="st0" d="M294.7,82.6c0.8,0,1.6,0.3,2.1,0.9c0.6,0.7,0.8,1.6,0.8,2.5v0.2h-4.7c0,0.6,0.1,1.2,0.4,1.7
	c0.2,0.4,0.5,0.7,0.8,0.9c0.4,0.2,0.8,0.3,1.2,0.3c0.9,0,1.7-0.4,2.3-0.9v1.5c-0.4,0.3-0.8,0.5-1.2,0.6c-0.4,0.1-0.9,0.2-1.4,0.2
	c-0.5,0-1-0.1-1.5-0.3c-0.4-0.2-0.8-0.5-1-0.8c-0.8,0.7-1.8,1.1-2.9,1.2c-0.5,0-1.1-0.2-1.5-0.5c-0.4-0.4-0.6-0.9-0.6-1.4
	c0-0.4,0.1-0.8,0.4-1.1c0.3-0.4,0.7-0.7,1.2-0.9c0.4-0.2,0.8-0.3,1.2-0.4l1-0.3v-0.2c0-0.4-0.1-0.8-0.3-1.2c-0.3-0.3-0.6-0.4-1-0.4
	c-1,0-1.8,0.5-2.4,1.3v-1.8c0.4-0.3,0.8-0.5,1.2-0.7c0.4-0.1,0.8-0.2,1.3-0.2c0.9,0,1.7,0.3,2.3,1c0.3-0.3,0.7-0.6,1.1-0.8
	C293.9,82.7,294.3,82.6,294.7,82.6z M291.4,89.1v-2.5l-0.8,0.3c-0.4,0.1-0.8,0.4-1.2,0.6c-0.2,0.2-0.3,0.5-0.4,0.8
	c0,0.3,0.1,0.6,0.3,0.8c0.2,0.2,0.5,0.3,0.8,0.3c0.2,0,0.4,0,0.5-0.1C290.9,89.3,291.1,89.2,291.4,89.1z M293,85.3h3
	c0-0.4-0.2-0.7-0.5-1c-0.3-0.3-0.6-0.4-1-0.4C293.9,83.9,293.3,84.4,293,85.3z"/>
<path class="st0" d="M304.7,78.8h1.5v11.6H303c-1,0-2-0.3-2.7-1.1c-0.7-0.8-1.1-1.8-1-2.9c0-1,0.3-2,1-2.8c0.7-0.7,1.7-1.1,2.7-1.1
	c0.6,0,1.1,0.1,1.7,0.3V78.8z M304.7,89.1v-4.8c-0.4-0.2-0.9-0.3-1.4-0.3c-0.7,0-1.3,0.2-1.8,0.7c-0.5,0.6-0.7,1.3-0.7,2
	c0,0.7,0.2,1.3,0.6,1.8c0.2,0.2,0.5,0.4,0.7,0.5c0.5,0.1,0.9,0.2,1.4,0.1L304.7,89.1z"/>
<path class="st0" d="M315,86.7h-5.4c0,0.7,0.3,1.3,0.7,1.8c0.5,0.4,1.1,0.7,1.8,0.6c1,0,2-0.3,2.8-0.9v1.5c-0.4,0.3-0.9,0.5-1.4,0.7
	c-0.5,0.1-1.1,0.2-1.6,0.2c-0.7,0-1.4-0.2-2-0.5c-0.5-0.4-1-0.8-1.3-1.4c-0.3-0.6-0.5-1.3-0.5-2c0-1,0.3-2.1,1-2.8
	c0.7-0.7,1.6-1.1,2.6-1.1c0.9,0,1.8,0.4,2.4,1.1c0.6,0.8,1,1.8,0.9,2.8L315,86.7z M309.6,85.8h3.8c0-0.5-0.2-1-0.5-1.4
	c-0.3-0.3-0.8-0.5-1.3-0.5c-0.5,0-1,0.2-1.3,0.5C310,84.8,309.7,85.3,309.6,85.8z"/>
<path class="st0" d="M318.5,82.8v1.8l0.1-0.1c0.7-1.2,1.5-1.8,2.2-1.8c0.7,0,1.3,0.4,1.8,0.9l-0.8,1.3c-0.4-0.4-0.9-0.7-1.5-0.7
	c-0.5,0-1,0.3-1.3,0.7c-0.4,0.5-0.5,1.1-0.5,1.7v4H317v-7.6L318.5,82.8z"/>
<path class="st0" d="M323.8,78.8h1.5v5c0.6-0.7,1.4-1.2,2.4-1.2c0.5,0,1,0.1,1.4,0.4c0.4,0.3,0.7,0.6,0.9,1.1c0.2,0.6,0.3,1.3,0.3,2
	v4.3h-1.5v-4.7c0-0.5-0.1-1-0.4-1.3c-0.3-0.3-0.7-0.5-1.1-0.5c-0.3,0-0.7,0.1-0.9,0.3c-0.4,0.2-0.7,0.5-1,0.9v5.5h-1.5L323.8,78.8z"
	/>
<path class="st0" d="M337.4,85.8v3.2c0,0.3,0.1,0.4,0.3,0.4c0.3-0.1,0.6-0.2,0.9-0.4v1c-0.3,0.2-0.5,0.3-0.8,0.4
	c-0.2,0.1-0.4,0.1-0.6,0.1c-0.6,0-1-0.3-1.1-0.8c-0.6,0.5-1.3,0.7-2,0.8c-0.5,0-1-0.2-1.3-0.5c-0.4-0.3-0.5-0.8-0.5-1.3
	c0-0.5,0.2-0.9,0.5-1.3c0.4-0.4,0.9-0.7,1.5-0.9l1.9-0.7v-0.4c0.1-0.7-0.3-1.3-1-1.4c-0.1,0-0.3,0-0.4,0c-0.9,0.1-1.8,0.5-2.4,1.3
	v-1.7c0.6-0.7,1.6-1.1,2.5-1c0.7,0,1.4,0.2,2,0.7c0.4,0.3,0.6,0.8,0.7,1.2C337.4,85,337.4,85.4,337.4,85.8z M335.9,88.9v-2.3l-1,0.4
	c-0.4,0.1-0.8,0.3-1.1,0.6c-0.2,0.2-0.3,0.5-0.3,0.8c0,0.3,0.1,0.6,0.3,0.8c0.2,0.2,0.5,0.3,0.8,0.3
	C335.1,89.5,335.6,89.3,335.9,88.9L335.9,88.9z M335.2,78c0.4,0,0.8,0.2,1.1,0.5c0.3,0.3,0.5,0.7,0.5,1.1c0,0.4-0.2,0.8-0.5,1.1
	c-0.3,0.3-0.7,0.5-1.1,0.5c-0.4,0-0.8-0.2-1.1-0.5c-0.3-0.3-0.5-0.7-0.5-1.1C333.6,78.7,334.3,78,335.2,78L335.2,78z M335.2,78.7
	c-0.5,0-0.9,0.3-0.9,0.8c0,0,0,0.1,0,0.1c0,0.3,0.1,0.5,0.3,0.7c0.2,0.2,0.4,0.3,0.7,0.3c0.3,0,0.5-0.1,0.7-0.3
	c0.4-0.4,0.4-0.9,0-1.3c0,0,0,0,0,0C335.7,78.7,335.4,78.6,335.2,78.7L335.2,78.7z"/>
<path class="st0" d="M341.6,82.8v1c0.6-0.7,1.4-1.1,2.3-1.1c0.5,0,0.9,0.1,1.3,0.4c0.4,0.2,0.7,0.6,0.9,1c0.2,0.6,0.4,1.3,0.3,2v4.4
	H345V86c0-0.6-0.1-1.2-0.4-1.7c-0.3-0.4-0.7-0.6-1.2-0.5c-0.8,0-1.4,0.4-1.8,1.1v5.4h-1.5v-7.6L341.6,82.8z"/>
<path class="st0" d="M354,78.8h1.5v11.6h-3.2c-1,0-2-0.3-2.7-1.1c-0.7-0.8-1.1-1.8-1-2.9c0-1,0.3-2,1.1-2.8c0.7-0.7,1.7-1.1,2.7-1.1
	c0.6,0,1.1,0.1,1.7,0.3L354,78.8z M354,89.1v-4.8c-0.4-0.2-0.9-0.3-1.4-0.3c-0.7,0-1.3,0.2-1.8,0.7c-0.5,0.6-0.7,1.3-0.7,2
	c0,0.7,0.2,1.3,0.6,1.8c0.2,0.2,0.5,0.4,0.7,0.5c0.5,0.1,0.9,0.2,1.4,0.1L354,89.1z"/>
<path class="st0" d="M362.5,82.8h1.6l-3.4,7.8h-0.5l-3.5-7.8h1.7l2.1,4.7L362.5,82.8z"/>
<path class="st0" d="M372.2,82.6c0.8,0,1.6,0.3,2.1,0.9c0.6,0.7,0.8,1.6,0.8,2.5v0.2h-4.7c0,0.6,0.1,1.2,0.4,1.7
	c0.4,0.8,1.2,1.2,2,1.2c0.9-0.1,1.7-0.4,2.3-0.9v1.5c-0.4,0.3-0.8,0.5-1.2,0.6c-0.4,0.1-0.9,0.2-1.4,0.2c-0.5,0-1-0.1-1.5-0.3
	c-0.4-0.2-0.8-0.5-1.1-0.8c-0.8,0.7-1.8,1.1-2.9,1.2c-0.5,0-1.1-0.2-1.5-0.5c-0.4-0.4-0.6-0.9-0.6-1.4c0-0.4,0.1-0.8,0.4-1.1
	c0.3-0.4,0.7-0.7,1.2-0.9c0.4-0.2,0.8-0.3,1.2-0.4l1-0.3v-0.2c0-0.4-0.1-0.8-0.3-1.2c-0.3-0.3-0.6-0.4-1-0.4c-1,0-1.8,0.5-2.4,1.3
	v-1.8c0.4-0.3,0.8-0.5,1.2-0.7c0.4-0.1,0.8-0.2,1.3-0.2c0.9-0.1,1.7,0.3,2.3,1c0.3-0.3,0.7-0.6,1.1-0.8
	C371.4,82.7,371.8,82.6,372.2,82.6z M368.9,89.1v-2.5l-0.8,0.3c-0.4,0.1-0.8,0.4-1.2,0.6c-0.2,0.2-0.3,0.5-0.4,0.8
	c0,0.3,0.1,0.6,0.3,0.8c0.2,0.2,0.5,0.3,0.8,0.3c0.2,0,0.4,0,0.5-0.1C368.4,89.3,368.7,89.2,368.9,89.1L368.9,89.1z M370.6,85.3h3
	c0-0.4-0.2-0.7-0.5-1c-0.3-0.3-0.6-0.4-1-0.4C371.4,83.9,370.9,84.4,370.6,85.3z"/>
<path class="st0" d="M378.8,82.8v1.8l0.1-0.1c0.7-1.2,1.5-1.8,2.2-1.8c0.7,0.1,1.3,0.4,1.8,0.9l-0.8,1.3c-0.4-0.4-0.9-0.7-1.5-0.7
	c-0.5,0-1,0.3-1.3,0.7c-0.4,0.5-0.5,1.1-0.5,1.7v4h-1.5v-7.6L378.8,82.8z"/>
<path class="st0" d="M384.1,78.8h1.5v11.6h-1.5V78.8z M389.1,82.8h1.8l-3.3,3.7l3.9,3.9h-2l-3.8-3.9L389.1,82.8z"/>
</svg>
