<?xml version="1.0" encoding="utf-8"?>
<!-- Generator: Adobe Illustrator 24.0.1, SVG Export Plug-In . SVG Version: 6.00 Build 0)  -->
<svg version="1.1" id="Layer_1" xmlns="http://www.w3.org/2000/svg" xmlns:xlink="http://www.w3.org/1999/xlink" x="0px" y="0px"
	 viewBox="0 0 339.9 59.5" style="enable-background:new 0 0 339.9 59.5;" xml:space="preserve">
<style type="text/css">
	.st0{fill:#FFFFFF;}
	.st1{fill:none;stroke:#FFFFFF;stroke-width:4;stroke-miterlimit:10;}
</style>
<title>Skotteknive - Logo</title>
<path class="st0" d="M91,35.6l-4-3c-2.1-1.5-4-3.4-5.4-5.5C80.5,25.2,80,23,80,20.8c-0.1-3.2,0.9-6.3,3-8.7c2-2.2,4.9-3.4,7.9-3.3
	C94,8.9,97,10,99.3,12v7.3c-2.7-3.1-5.5-4.7-8.6-4.7c-1.5-0.1-3.1,0.5-4.3,1.5c-1.1,0.9-1.7,2.3-1.7,3.7c0,1.4,0.4,2.7,1.2,3.8
	c1.1,1.4,2.4,2.7,3.9,3.7l4,2.9c4.5,3.3,6.8,7.5,6.8,12.5c0.1,3.2-0.9,6.4-3,8.8C95.8,53.9,93,55.1,90,55c-3.7,0-7.3-1.5-10-4.1
	v-8.2c2.9,4.4,6.2,6.6,9.9,6.6c1.6,0,3.1-0.6,4.1-1.7c1.1-1.1,1.8-2.6,1.8-4.2C95.9,40.7,94.2,38.1,91,35.6z"/>
<path class="st0" d="M106,9.5h4.8v45H106V9.5z M121.8,24.8h5.7l-10.4,14.5l12.5,15.1h-6.5L111,39.3L121.8,24.8z"/>
<path class="st0" d="M141.9,24.8c3.6-0.1,7,1.6,9.2,4.4c2.5,3.1,3.8,7,3.7,11c0.1,3.9-1.2,7.7-3.7,10.7c-2.3,2.8-5.8,4.3-9.4,4.3
	c-3.5,0-6.9-1.5-9.1-4.3c-2.5-3-3.8-6.8-3.7-10.8c-0.1-4,1.2-7.8,3.7-10.9C134.9,26.3,138.3,24.7,141.9,24.8z M141.7,30
	c-2.2,0-4.3,1-5.7,2.8c-1.5,2-2.3,4.5-2.2,7.1c-0.1,2.5,0.7,5,2.3,7c1.4,1.8,3.6,2.7,5.8,2.7c2.3,0.1,4.4-1,5.8-2.7
	c1.6-2,2.4-4.5,2.3-7c0.1-2.5-0.7-5-2.4-7C146.2,31,144,30,141.7,30L141.7,30z"/>
<path class="st0" d="M156.8,29.5l9-10.8v6.1h7.7v5.3h-7.7v14.5c0,3.4,1.2,5.1,3.5,5.1c2-0.1,3.9-0.8,5.5-2.1v5.5
	c-1.8,1.2-3.9,1.9-6.1,1.9c-2.1,0-4.1-0.8-5.5-2.4c-0.5-0.5-0.8-1-1.1-1.6c-0.3-0.7-0.6-1.5-0.8-2.3c-0.3-1.8-0.4-3.6-0.3-5.5V30.1
	h-4.2L156.8,29.5z"/>
<path class="st0" d="M174.8,29.5l9-10.8v6.1h7.7v5.3h-7.7v14.5c0,3.4,1.1,5.1,3.5,5.1c2-0.1,3.9-0.8,5.5-2.1v5.5
	c-1.8,1.2-3.9,1.9-6.1,1.9c-2.1,0-4.1-0.8-5.5-2.4c-0.5-0.5-0.8-1-1.1-1.6c-0.4-0.7-0.6-1.5-0.8-2.3c-0.3-1.8-0.4-3.6-0.3-5.5V30.1
	h-4.2L174.8,29.5z"/>
<path class="st0" d="M216.9,40.2h-17.1c0,2.5,0.8,4.8,2.3,6.8c1.4,1.6,3.4,2.6,5.6,2.5c3.3,0,6.4-1.3,8.8-3.6v5.8
	c-1.3,1.1-2.8,2-4.4,2.6c-1.6,0.5-3.4,0.8-5.1,0.8c-2.3,0.1-4.6-0.6-6.5-2c-1.8-1.5-3.1-3.4-4-5.5c-1.1-2.5-1.6-5.3-1.5-8
	c0-4.5,1-8.2,3.1-11c1.8-2.7,4.9-4.3,8.2-4.2c3.1,0,6,1.5,7.7,4.1c1.9,2.8,2.9,6.4,2.9,11.1L216.9,40.2z M199.9,36.6h12.2
	c0-1.9-0.6-3.8-1.7-5.4c-1-1.3-2.5-2-4.1-1.9c-1.6,0-3.2,0.7-4.2,1.9C200.9,32.8,200.1,34.7,199.9,36.6z"/>
<path class="st0" d="M243.7,9.5h6.6l-16,21.4l20,23.7H247l-18.9-22.3v22.2h-5.3v-45h5.3V30L243.7,9.5z"/>
<path class="st0" d="M262.5,24.8v3.8c2.2-2.9,4.6-4.4,7.3-4.4c1.5,0,3,0.5,4.2,1.4c1.3,1,2.4,2.4,3,3.9c0.7,1.7,1,4.3,1,7.9v16.9
	h-4.8V37.6c0-3-0.4-5.2-1.1-6.5c-0.8-1.3-2.3-2.1-3.8-2c-2.3,0-4.2,1.4-5.8,4.2v21.2h-4.9V24.8H262.5z"/>
<path class="st0" d="M287.2,12.3c0.8,0,1.5,0.4,2,1c0.6,0.7,0.9,1.6,0.9,2.5c0,0.9-0.3,1.8-0.9,2.4c-0.5,0.6-1.2,1-2,1
	c-0.8,0-1.5-0.4-2-1c-1.1-1.4-1.1-3.4,0-4.8C285.7,12.7,286.4,12.3,287.2,12.3z M284.8,24.8h4.8v29.6h-4.8V24.8z"/>
<path class="st0" d="M311.5,24.8h5.2L305.9,55h-1.6l-11-30.2h5.3l6.6,18.3L311.5,24.8z"/>
<path class="st0" d="M339.9,40.2h-17.1c0,2.5,0.8,4.8,2.3,6.8c1.4,1.6,3.4,2.6,5.6,2.5c3.3,0,6.4-1.3,8.8-3.6v5.8
	c-1.3,1.1-2.8,2-4.4,2.6c-1.6,0.5-3.4,0.8-5.1,0.8c-2.3,0.1-4.6-0.6-6.5-2c-1.8-1.5-3.1-3.4-4-5.5c-1.1-2.5-1.6-5.3-1.5-8
	c0-4.5,1-8.2,3.1-11c1.8-2.7,4.9-4.3,8.2-4.2c3.1,0,6,1.5,7.7,4.1c1.9,2.8,2.9,6.4,2.9,11.1L339.9,40.2z M322.9,36.6h12.2
	c0-1.9-0.6-3.8-1.7-5.4c-1-1.3-2.5-2-4.1-1.9c-1.6,0-3.2,0.7-4.3,1.9C323.8,32.8,323.1,34.7,322.9,36.6L322.9,36.6z"/>
<path class="st0" d="M29.9,57.1c0.6-1.9,1-3.8,1.3-5.7c0.4-3.1,0.5-6.2,0.2-9.3c-0.4-3.9-0.6-5.8-0.9-7c-0.1-0.5-0.2-0.9-0.2-1.4
	c0.1-1.1,0.4-2.2,0.8-3.3c0-0.1,0.1-0.2,0.1-0.3c1.7-0.8,3.1-2.1,4.2-3.6c1.3-1.9,2-4.1,2-6.3c0-2.3-0.6-4.5-1.8-6.4
	c-0.7-1.2-1.7-2.1-2.9-2.9c-0.2-0.1-0.4-0.2-0.5-0.3l-0.1-0.1l4.7-6.8l-5.6,4.2c-0.1,0.1-0.6,0.4-0.8,0.3s0.2-1.1,0.4-2.8
	c0-0.4,0.1-0.7,0.2-1.1c0.2-0.7,0.5-1.4,0.9-2.1C32,1.8,32.1,1.4,32.2,1L27,7.5l0.1-6c-0.9,1.9-1.8,3.8-2.5,5.7
	c0,0.2-0.1,0.4-0.3,0.6c-0.1,0-0.1,0.1-0.2,0.1l-0.4-7.8c-0.5,4-0.8,5.5-0.7,5.7c0,0,0.1,0.3,0,0.4s-0.1,0-0.1,0l-1-1.6l-0.9-3.5
	c-0.2,1.4-0.3,2.8-0.3,4.3c0.1,0.6,0.1,1.1-0.1,1.7c0,0.1,0,0.2-0.1,0.3l-0.8-1.4c0.9,2.3,0.8,2.9,0.6,3c-0.1,0-0.2,0-0.3,0
	l-1.4-3.1c0,0.3,0,0.7,0,1c0,0.6,0,1.3-0.2,1.3s-0.6-2.2-2-4.9c-0.1-0.3-0.3-0.5-0.4-0.7c0.9,3.6,1.5,5.8,2,7.3
	c0.1,0.2,0.2,0.8,0.1,0.8S16.7,8.8,15.5,7c-0.9-1.5-1.9-2.8-3.2-4l-0.4-0.4l5.5,9.1c0.1,0.2,0.2,0.4,0.3,0.6c0,0.1,0,0.2,0.1,0.3
	c-0.8-0.2-1.5-0.5-2.2-0.9c-0.6-0.3-0.9-0.6-2.2-1.5l-0.7-0.4c1.1,1.3,2.4,2.5,3.8,3.6l0.4,0.3c-1.3,1.8-2,4-2.1,6.2
	c0,3.1,1.2,6.1,3.3,8.3c2,2,4.6,3.2,7.4,3.3h0.1c0.2,0.7,0.5,1.4,1,2c0.3,0.3,0.5,0.6,0.7,1v0.1c0.2,0.8,0.4,1.8,0.6,3.2
	c0.3,2.3,0.5,4.6,0.5,6.9c0.1,2.1,0,4.3-0.2,6.4c-0.2,1.9-0.7,3.7-1.3,5.5c-0.1,0.2-0.1,0.5-0.1,0.7c0.1,0.5,0.4,0.9,0.9,1.2
	c0.4,0.2,0.9,0.2,1.3,0.1l0.2-0.1c0.3-0.2,0.5-0.4,0.6-0.8L29.9,57.1z"/>
<path class="st0" d="M32.5,45.7c0.3-0.8,0.7-1.5,1.1-2.2c0.7-1.2,1.1-2.6,1.1-4c0.2-1.6,0-3.2-0.5-4.8c0.1,0.1,0.2,0.1,0.3,0.1
	c1.7,0.6,3.6,0.3,5.1-0.8c2.8-1.9,2.6-5.6,2.5-5.8l0.2,0.1c1,0.3,2,0.5,3,0.7c1.1,0.1,2.2-0.1,3.2-0.6c1.5-0.9,2.6-2.4,2.8-4.1
	c0-0.3,0-0.7,0-1l0.1,0.1c0.1,0.2,0.2,0.3,0.3,0.5c0.4,0.5,0.9,1,1.4,1.4c1,0.7,2.1,1.1,3.3,1.1c0.9,0.1,1.9,0,2.8-0.1
	c0.8-0.1,1.6-0.1,2.1-0.2l-0.9,0.2c-0.7,0.2-1.2,0.2-1.3,0.3C57.2,27.2,55,28,53,28.9c-2.4,1.1-4.8,2.5-7,4
	c-2.9,2.1-5.6,4.5-8.1,7.2c-1.6,1.6-3,3.3-4.3,5.1c-0.6,0.8-1,1.4-1.4,2l-0.2,0.3c0-0.2,0.1-0.5,0.1-0.7
	C32.3,46.5,32.4,46.1,32.5,45.7z"/>
<path class="st0" d="M61.8,26.5c-0.5,0.1-1.3,0.3-2.1,0.5c-4.4,1.2-8.6,3.2-12.3,5.8c-5.8,4-10.8,9-14.8,14.8l0.9-0.8
	c0.9-0.9,1.8-1.8,2.7-2.7c2.1-2.1,4.6-3.8,7.3-4.9c0.9-0.4,1.9-0.7,2.9-0.8c1.2-0.1,2.5,0.1,3.7,0.5c0-0.1,0-0.3,0-0.5
	c0.1-0.9,0.2-2,0.2-2.3c0.2-1,0.6-2,1.2-2.9c1-1.2,2.4-2,4-2.3c1.2-0.2,2.4-0.2,3.6,0.2c0-0.1,0-0.2,0-0.3c-0.1-0.6-0.1-1.1,0-1.7
	c0.2-1.1,1.5-1.9,1.8-2.1L61.8,26.5z"/>
<path class="st0" d="M26.8,50.1c-0.2-0.8-0.5-1.5-0.8-2.3c-0.5-1.3-0.7-2.7-0.6-4.1c0-1.6,0.4-3.2,1-4.7L26,39.2
	c-1.8,0.3-3.6-0.2-4.9-1.4c-2.5-2.2-1.9-5.9-1.8-6H19c-1,0.2-2.1,0.3-3.1,0.3c-1.1-0.1-2.1-0.4-3-1.1c-1.4-1-2.3-2.6-2.3-4.4
	c0-0.3,0-0.7,0.1-1l-0.1,0.1c-0.1,0.1-0.3,0.3-0.4,0.5c-0.4,0.5-1,0.9-1.5,1.3c-1.1,0.6-2.2,0.8-3.4,0.7c-0.9-0.1-1.9-0.2-2.8-0.4
	c-0.8-0.2-1.6-0.3-2.1-0.5l0.9,0.3C1.9,27.8,2.4,28,2.4,28c2.1,0.8,4.2,1.8,6.1,3c2.3,1.4,4.5,3,6.5,4.8c2.7,2.5,5,5.2,7.1,8.2
	c1.4,1.8,2.6,3.6,3.6,5.6c0.5,0.9,0.9,1.6,1.1,2.1L27,52c0-0.2,0-0.5,0-0.7C27,50.9,26.9,50.5,26.8,50.1z"/>
<path class="st0" d="M0,27.6c0.5,0.2,1.2,0.4,2.1,0.8c4.2,1.7,8.1,4.2,11.5,7.3c5.2,4.7,9.6,10.3,12.9,16.5
	c-0.2-0.2-0.4-0.5-0.8-0.9c-0.8-1-1.6-2-2.3-3c-1.8-2.4-4.1-4.3-6.7-5.8c-0.8-0.5-1.8-0.9-2.7-1.2c-1.2-0.3-2.4-0.3-3.6,0
	c0-0.1,0-0.3,0-0.5c0-0.9,0.1-2,0.1-2.3c0-1.1-0.3-2.1-0.9-3c-0.9-1.3-2.2-2.3-3.7-2.7c-1.2-0.4-2.4-0.5-3.6-0.3
	c0-0.1,0-0.2,0.1-0.3c0.1-0.6,0.2-1.1,0.2-1.7c0-1.1-1.2-2.1-1.5-2.3L0,27.6z"/>
<line class="st1" x1="69" y1="2.5" x2="69" y2="59.5"/>
</svg>
