<?xml version="1.0" encoding="utf-8"?>
<!-- Generator: Adobe Illustrator 23.1.0, SVG Export Plug-In . SVG Version: 6.00 Build 0)  -->
<svg version="1.1" id="Layer_1" xmlns="http://www.w3.org/2000/svg" xmlns:xlink="http://www.w3.org/1999/xlink" x="0px" y="0px"
	 viewBox="0 0 400 150" style="enable-background:new 0 0 400 150;" xml:space="preserve">
<style type="text/css">
	.st0{fill:#FFFFFF;}
</style>
<g>
	<path class="st0" d="M33,85.2c2.3,1.4,5.8,2.6,9.4,2.6c5.3,0,8.5-2.8,8.5-6.9c0-3.8-2.2-5.9-7.6-8c-6.6-2.3-10.7-5.8-10.7-11.5
		c0-6.3,5.2-11,13.1-11c4.1,0,7.1,1,8.9,2l-1.4,4.3c-1.3-0.7-4-1.9-7.7-1.9c-5.5,0-7.6,3.3-7.6,6.1c0,3.8,2.5,5.6,8,7.8
		c6.8,2.6,10.3,5.9,10.3,11.9c0,6.2-4.6,11.6-14.2,11.6c-3.9,0-8.2-1.1-10.3-2.6L33,85.2z"/>
	<path class="st0" d="M63.3,51.2h5.2v19.5h0.2c1.1-1.6,2.2-3,3.2-4.3l12.4-15.2h6.5L76.1,68.3l15.8,23.3h-6.2L72.4,71.7l-3.8,4.4
		v15.4h-5.2V51.2z"/>
	<path class="st0" d="M129.3,71c0,13.9-8.5,21.3-18.8,21.3c-10.7,0-18.2-8.3-18.2-20.5c0-12.8,8-21.2,18.8-21.2
		C122.2,50.5,129.3,59,129.3,71z M98,71.6c0,8.6,4.7,16.4,12.9,16.4c8.3,0,13-7.6,13-16.8c0-8-4.2-16.4-12.9-16.4
		C102.3,54.8,98,62.7,98,71.6z"/>
	<path class="st0" d="M142.3,55.6H130v-4.4H160v4.4h-12.4v36h-5.3V55.6z"/>
	<path class="st0" d="M174.4,55.6h-12.3v-4.4H192v4.4h-12.4v36h-5.3V55.6z"/>
	<path class="st0" d="M217.5,72.6h-15.7v14.6h17.5v4.4h-22.7V51.2h21.8v4.4h-16.6v12.8h15.7V72.6z"/>
	<path class="st0" d="M226.1,51.2h5.2v19.5h0.2c1.1-1.6,2.2-3,3.2-4.3L247,51.2h6.5l-14.6,17.2l15.8,23.3h-6.2l-13.3-19.9l-3.8,4.4
		v15.4h-5.2V51.2z"/>
	<path class="st0" d="M258.6,91.6V51.2h5.7l13,20.5c3,4.7,5.3,9,7.3,13.1l0.1-0.1c-0.5-5.4-0.6-10.3-0.6-16.6V51.2h4.9v40.4h-5.3
		l-12.8-20.5c-2.8-4.5-5.5-9.1-7.6-13.5l-0.2,0.1c0.3,5.1,0.4,10,0.4,16.7v17.3H258.6z"/>
	<path class="st0" d="M303.3,51.2v40.4h-5.2V51.2H303.3z"/>
	<path class="st0" d="M321.3,91.6l-13.2-40.4h5.6l6.3,19.9c1.7,5.5,3.2,10.4,4.3,15.1h0.1c1.1-4.7,2.8-9.8,4.6-15.1l6.8-20h5.6
		L327,91.6H321.3z"/>
	<path class="st0" d="M366.8,72.6h-15.7v14.6h17.5v4.4h-22.7V51.2h21.8v4.4h-16.6v12.8h15.7V72.6z"/>
</g>
</svg>
