<?xml version="1.0" encoding="utf-8"?>
<!-- Generator: Adobe Illustrator 23.1.0, SVG Export Plug-In . SVG Version: 6.00 Build 0)  -->
<svg version="1.1" id="Layer_1" xmlns="http://www.w3.org/2000/svg" xmlns:xlink="http://www.w3.org/1999/xlink" x="0px" y="0px"
	 viewBox="0 0 1020 354" style="enable-background:new 0 0 1020 354;" xml:space="preserve">
<style type="text/css">
	.st0{opacity:0.99;fill:#10E6EA;}
</style>
<title>Teamfight Tactics (TFT) - Logo</title>
<g>
	<path class="st0" d="M100.3,280.3V144.1V63H345c-5.5,5.2-16.4,15.8-32.7,31.7h-146v152.8h179.2l-32.7,32.7H100.3z"/>
	<path class="st0" d="M371.8,280.3V89.9V63c67.1,43.3,111.7,72.3,133.8,86.9c67.1-43.6,111.8-72.6,134.3-86.9v217.3h-64.9V155.8
		c-34.5,22.1-57.6,36.8-69.3,43.9c-34.2-21.8-57.1-36.5-68.8-43.9v124.5H371.8z"/>
	<path class="st0" d="M713.1,280.3c-6.8-5.5-20.3-16.8-40.5-33.7h187V187H680.4V63h248.5c-4.9,5.2-14.5,16-28.8,32.2H745.4v59.1H925
		v126H713.1z"/>
</g>
</svg>
