<svg id="Layer_1" data-name="Layer 1" xmlns="http://www.w3.org/2000/svg" viewBox="0 0 391.51 113"><defs><style>.cls-1{fill:#fff;}.cls-2{fill:none;stroke:#fff;stroke-miterlimit:10;stroke-width:4px;}</style></defs><title>logo - large</title><path class="cls-1" d="M144,72.15l-4-3a19.75,19.75,0,0,1-5.38-5.54,12.15,12.15,0,0,1-1.6-6.28,12.35,12.35,0,0,1,3-8.65,10.13,10.13,0,0,1,7.86-3.32,13.08,13.08,0,0,1,8.48,3.17v7.32q-4-4.68-8.59-4.68a6.23,6.23,0,0,0-4.25,1.46,4.76,4.76,0,0,0-1.67,3.74,6.54,6.54,0,0,0,1.23,3.8A16.42,16.42,0,0,0,143,63.9l4,2.92q6.77,4.92,6.76,12.54a12.84,12.84,0,0,1-3,8.81,9.8,9.8,0,0,1-7.73,3.39,14.43,14.43,0,0,1-10-4.11v-8.2q4.28,6.63,9.91,6.63a5.59,5.59,0,0,0,4.14-1.69A5.82,5.82,0,0,0,148.86,80Q148.86,75.85,144,72.15Z" transform="translate(-2.25 -22)"/><path class="cls-1" d="M159,46h4.81V91H159Zm15.83,15.39h5.71L170.15,75.87,182.64,91h-6.46L164,75.89Z" transform="translate(-2.25 -22)"/><path class="cls-1" d="M194.93,61.29a11.56,11.56,0,0,1,9.22,4.37,16.5,16.5,0,0,1,3.67,11,15.58,15.58,0,0,1-3.72,10.66,12,12,0,0,1-9.39,4.25,11.55,11.55,0,0,1-9.14-4.31,16,16,0,0,1-3.67-10.76,16.08,16.08,0,0,1,3.71-10.86A11.72,11.72,0,0,1,194.93,61.29Zm-.27,5.29A7,7,0,0,0,189,69.35a11,11,0,0,0-2.22,7.07,10.46,10.46,0,0,0,2.27,7,7.31,7.31,0,0,0,5.84,2.69,7.18,7.18,0,0,0,5.8-2.73,10.53,10.53,0,0,0,2.26-7,10.48,10.48,0,0,0-2.35-7A7.43,7.43,0,0,0,194.66,66.58Z" transform="translate(-2.25 -22)"/><path class="cls-1" d="M209.75,66.06l9-10.84v6.13h7.69v5.29h-7.69V81.17c0,3.4,1.16,5.09,3.47,5.09a9.48,9.48,0,0,0,5.47-2.09v5.48a10.49,10.49,0,0,1-6.06,1.91,7.19,7.19,0,0,1-5.49-2.36A6.47,6.47,0,0,1,215,87.6a9.43,9.43,0,0,1-.75-2.32,30.8,30.8,0,0,1-.31-5.47V66.64h-4.23Z" transform="translate(-2.25 -22)"/><path class="cls-1" d="M227.78,66.06l9-10.84v6.13h7.69v5.29h-7.69V81.17c0,3.4,1.15,5.09,3.46,5.09a9.45,9.45,0,0,0,5.47-2.09v5.48a10.48,10.48,0,0,1-6.05,1.91,7.21,7.21,0,0,1-5.5-2.36,6.19,6.19,0,0,1-1.13-1.6,9.4,9.4,0,0,1-.76-2.32,32.16,32.16,0,0,1-.3-5.47V66.64h-4.23Z" transform="translate(-2.25 -22)"/><path class="cls-1" d="M269.94,76.71h-17.1a10.86,10.86,0,0,0,2.33,6.78A7,7,0,0,0,260.74,86a12.86,12.86,0,0,0,8.77-3.62v5.75a15.11,15.11,0,0,1-4.4,2.58,15.43,15.43,0,0,1-5.11.77,10,10,0,0,1-6.5-2,14.19,14.19,0,0,1-4-5.47,19.73,19.73,0,0,1-1.5-8q0-6.77,3.15-11a9.75,9.75,0,0,1,8.17-4.24,9,9,0,0,1,7.71,4.13c1.93,2.76,2.89,6.44,2.89,11.07Zm-17-3.52h12.24a9.33,9.33,0,0,0-1.72-5.42,5,5,0,0,0-4.12-1.9,5.34,5.34,0,0,0-4.24,1.9A10.34,10.34,0,0,0,252.94,73.19Z" transform="translate(-2.25 -22)"/><path class="cls-1" d="M296.68,46h6.61l-16,21.39,20,23.69H300L281.14,68.77V91h-5.28V46h5.28V66.58Z" transform="translate(-2.25 -22)"/><path class="cls-1" d="M315.45,61.35v3.78q3.23-4.36,7.32-4.36A7,7,0,0,1,327,62.21a8.93,8.93,0,0,1,3,3.93q1,2.51,1,7.93V91h-4.81V74.13q0-4.55-1.14-6.5a4,4,0,0,0-3.8-1.95c-2.28,0-4.21,1.38-5.79,4.16V91h-4.92V61.35Z" transform="translate(-2.25 -22)"/><path class="cls-1" d="M340.19,48.86a2.59,2.59,0,0,1,2,1,3.66,3.66,0,0,1,.85,2.46,3.73,3.73,0,0,1-.85,2.45,2.53,2.53,0,0,1-2,1,2.49,2.49,0,0,1-2-1,3.91,3.91,0,0,1,0-4.84A2.49,2.49,0,0,1,340.19,48.86Zm-2.38,12.49h4.81V91h-4.81Z" transform="translate(-2.25 -22)"/><path class="cls-1" d="M364.47,61.35h5.21L358.94,91.56h-1.62l-11-30.21h5.26l6.57,18.27Z" transform="translate(-2.25 -22)"/><path class="cls-1" d="M392.91,76.71h-17.1a10.92,10.92,0,0,0,2.34,6.78A7,7,0,0,0,383.72,86a12.86,12.86,0,0,0,8.77-3.62v5.75a15.11,15.11,0,0,1-4.4,2.58,15.43,15.43,0,0,1-5.11.77,10,10,0,0,1-6.5-2,14.19,14.19,0,0,1-4-5.47,19.73,19.73,0,0,1-1.5-8q0-6.77,3.15-11a9.75,9.75,0,0,1,8.17-4.24A9,9,0,0,1,390,64.9c1.92,2.76,2.88,6.44,2.88,11.07Zm-17-3.52h12.24a9.33,9.33,0,0,0-1.72-5.42,5,5,0,0,0-4.12-1.9,5.38,5.38,0,0,0-4.25,1.9A10.33,10.33,0,0,0,375.92,73.19Z" transform="translate(-2.25 -22)"/><path class="cls-1" d="M58.08,128.54A69.65,69.65,0,0,0,60.39,118a72.42,72.42,0,0,0,.36-17.31C60,93.46,59.59,89.85,59,87.51a9.64,9.64,0,0,1-.33-2.65,20.58,20.58,0,0,1,1.49-6.07l.19-.55A20.88,20.88,0,0,0,72.07,59.67a22,22,0,0,0-3.43-11.81,18.85,18.85,0,0,0-5.35-5.44,2.51,2.51,0,0,1-1-.63,2.27,2.27,0,0,1-.22-.28l8.77-12.72c-4.57,3.47-8.19,6.18-10.43,7.86-.22.17-1.06.81-1.43.55s.45-2,.83-5.29A16.63,16.63,0,0,1,60,29.86c.35-1.51,1-2.09,1.66-3.91a17.25,17.25,0,0,0,.63-2.1l-9.6,12.06.13-11.29c-3.33,7.17-4.55,10.05-4.66,10.65a1.67,1.67,0,0,1-.58,1.11,1.16,1.16,0,0,1-.33.16L46.46,22c-1,7.42-1.47,10.2-1.38,10.71,0,.07.12.6-.06.69s-.18,0-.25-.06l-1.93-2.9L41.1,23.88c-.62,5-.62,7-.49,8A8,8,0,0,1,40.47,35c0,.21-.11.37-.14.47l-1.41-2.65c1.67,4.25,1.5,5.39,1.08,5.66a.63.63,0,0,1-.47,0L37,32.73a13.68,13.68,0,0,1,.09,1.83c0,1.06-.06,2.41-.34,2.45-.48.08-1.06-4-3.78-9.13-.27-.53-.52-1-.69-1.24,1.65,6.78,2.81,10.9,3.67,13.55.13.39.47,1.4.25,1.51-.43.24-2.83-3.32-5.13-6.73a37.52,37.52,0,0,0-5.88-7.45c-.34-.32-.63-.57-.83-.75,5.76,9.54,9.93,16.46,10.3,17A4.21,4.21,0,0,1,35.17,45a2.43,2.43,0,0,1,.1.46,14.22,14.22,0,0,1-4-1.62c-1-.62-1.7-1.2-4.13-2.81l-1.27-.84a40.41,40.41,0,0,0,7,6.67l.67.51a21.41,21.41,0,0,0-3.9,11.56,21.85,21.85,0,0,0,6.11,15.54c.64.65,6.26,6.15,13.91,6.21h.25a10,10,0,0,0,1.79,3.72,6.23,6.23,0,0,1,1.25,1.83l.09.22c.3,1.44.69,3.46,1,5.88a104.76,104.76,0,0,1,.88,12.81,73.72,73.72,0,0,1-.37,12,54.17,54.17,0,0,1-2.41,10.3,2.7,2.7,0,0,0-.11,1.38,3.29,3.29,0,0,0,1.63,2.31,3.1,3.1,0,0,0,2.46.17,2.12,2.12,0,0,0,.37-.18,2.57,2.57,0,0,0,1.17-1.4Z" transform="translate(-2.25 -22)"/><path class="cls-1" d="M62.93,107.19a25,25,0,0,1,2.1-4c1.52-2.4,1.79-5,2-7.41a22.56,22.56,0,0,0-.88-8.9l.53.25c3.25,1.35,7.17.1,9.47-1.47,5.18-3.53,4.77-10.5,4.74-10.79l.45.14a30.48,30.48,0,0,0,5.68,1.27A11.11,11.11,0,0,0,92.87,75a10.55,10.55,0,0,0,5.27-7.59,9.54,9.54,0,0,0,.09-1.9l.19.22a5.13,5.13,0,0,1,.63.94,13.68,13.68,0,0,0,2.6,2.73,12,12,0,0,0,6.21,2.13,29,29,0,0,0,5.21-.2c1.51-.13,3-.29,3.89-.41-.38.1-1,.25-1.68.41-1.25.29-2.19.45-2.32.47A57.32,57.32,0,0,0,101.07,76,84.14,84.14,0,0,0,88,83.4c-6.29,4.4-10.22,8.47-15,13.47a75.78,75.78,0,0,0-8,9.54c-1.1,1.57-1.95,2.68-2.53,3.65l-.38.56c0-.35.12-.81.24-1.34A16,16,0,0,1,62.93,107.19Z" transform="translate(-2.25 -22)"/><path class="cls-1" d="M117.6,71.45c-.95.19-2.33.5-4,.94a74,74,0,0,0-23,10.87C76.39,92.83,66.46,106,63,110.8c.35-.3.92-.8,1.61-1.43a68.92,68.92,0,0,0,5-5.08c4.87-5.38,12-8.52,13.69-9.22a17.38,17.38,0,0,1,5.41-1.49,16.14,16.14,0,0,1,6.73.88c0-.19,0-.47.06-.82.11-1.66.27-3.7.33-4.25A11.86,11.86,0,0,1,98.12,84a12.22,12.22,0,0,1,7.39-4.19,14.12,14.12,0,0,1,6.73.28c0-.13,0-.32,0-.56a16.61,16.61,0,0,1,0-3.14c.29-2,2.74-3.57,3.31-3.92Z" transform="translate(-2.25 -22)"/><path class="cls-1" d="M52.16,115.53a27.25,27.25,0,0,0-1.59-4.26c-1.22-2.56-1.17-5.19-1.12-7.6a22.68,22.68,0,0,1,2-8.73c-.13,0-.32.12-.56.19-3.39.94-7.12-.77-9.21-2.61-4.72-4.14-3.46-11-3.4-11.29l-.46.09a31.26,31.26,0,0,1-5.79.56,11.14,11.14,0,0,1-5.63-2,10.57,10.57,0,0,1-4.3-8.17,8.75,8.75,0,0,1,.15-1.9A2.35,2.35,0,0,0,22,70a6.68,6.68,0,0,0-.75.86,13.1,13.1,0,0,1-2.9,2.39,12,12,0,0,1-6.43,1.36,28.63,28.63,0,0,1-5.15-.83c-1.48-.31-2.95-.65-3.81-.89.37.15.93.37,1.62.62,1.21.43,2.12.71,2.24.75a57.24,57.24,0,0,1,11.3,5.58,85.08,85.08,0,0,1,12.05,9c5.7,5.14,9.11,9.65,13.28,15.2a74.79,74.79,0,0,1,6.78,10.45c.9,1.69,1.62,2.9,2.08,3.92l.31.61c0-.36,0-.82-.08-1.36A16,16,0,0,0,52.16,115.53Z" transform="translate(-2.25 -22)"/><path class="cls-1" d="M2.25,73.39c.92.31,2.25.78,3.83,1.42A74.05,74.05,0,0,1,27.55,88.4c13,11.24,21.25,25.51,24.08,30.7-.3-.33-.8-.9-1.41-1.62-2.33-2.75-3.81-4.93-4.31-5.64C41.73,105.91,35,101.92,33.45,101a17.46,17.46,0,0,0-5.19-2.14,16.14,16.14,0,0,0-6.79.06c0-.19,0-.48,0-.83.09-1.65.19-3.7.19-4.26a11.73,11.73,0,0,0-1.64-5.59,12.32,12.32,0,0,0-6.83-5.07,14.28,14.28,0,0,0-6.72-.54l.12-.54A17.2,17.2,0,0,0,7,79c0-2-2.29-3.87-2.81-4.29Z" transform="translate(-2.25 -22)"/><line class="cls-2" x1="122.75" x2="122.75" y2="113"/><path class="cls-1" d="M142.49,100.81h1.66v11.6h-1.66v-5H136v5h-1.66v-11.6H136v5h6.52Z" transform="translate(-2.25 -22)"/><path class="cls-1" d="M151.55,107.82v3.24q0,.39.27.39a1.78,1.78,0,0,0,.85-.4V112a4.75,4.75,0,0,1-.82.45,1.82,1.82,0,0,1-.65.12c-.65,0-1-.25-1.15-.76a3.26,3.26,0,0,1-2.05.75,1.83,1.83,0,0,1-1.33-.53,1.8,1.8,0,0,1-.53-1.33,1.85,1.85,0,0,1,.52-1.29,3.54,3.54,0,0,1,1.47-.9l1.94-.66v-.41a1.22,1.22,0,0,0-1.38-1.38,3.32,3.32,0,0,0-2.41,1.28v-1.65a3.14,3.14,0,0,1,2.53-1,2.94,2.94,0,0,1,2,.65,2.33,2.33,0,0,1,.45.55,2.14,2.14,0,0,1,.25.69A11.88,11.88,0,0,1,151.55,107.82Zm-1.48,3.08v-2.27l-1,.39a3.6,3.6,0,0,0-1.09.62,1.06,1.06,0,0,0-.32.78,1,1,0,0,0,.31.77,1.06,1.06,0,0,0,.78.3A1.92,1.92,0,0,0,150.07,110.9ZM149.32,100a1.57,1.57,0,0,1,1.56,1.57,1.59,1.59,0,0,1-1.58,1.59,1.58,1.58,0,0,1-1.1-2.7A1.59,1.59,0,0,1,149.32,100Zm0,.68a.92.92,0,0,0-.68.25.89.89,0,0,0-.25.66,1,1,0,0,0,1.63.68.91.91,0,0,0,0-1.33A1,1,0,0,0,149.28,100.66Z" transform="translate(-2.25 -22)"/><path class="cls-1" d="M155.78,104.77v1a3,3,0,0,1,2.29-1.12,2.59,2.59,0,0,1,1.33.37,2.54,2.54,0,0,1,.94,1,4.9,4.9,0,0,1,.32,2v4.37h-1.51v-4.35a2.93,2.93,0,0,0-.36-1.67,1.37,1.37,0,0,0-1.2-.51,2.16,2.16,0,0,0-1.81,1.08v5.45h-1.55v-7.64Z" transform="translate(-2.25 -22)"/><path class="cls-1" d="M168.12,100.81h1.52v11.6h-3.23a3.54,3.54,0,0,1-2.7-1.07,4,4,0,0,1-1-2.87,3.84,3.84,0,0,1,1.05-2.78,3.64,3.64,0,0,1,2.71-1.08,4.81,4.81,0,0,1,1.66.32Zm0,10.3v-4.84a3.24,3.24,0,0,0-1.43-.35,2.3,2.3,0,0,0-1.8.74,2.87,2.87,0,0,0-.67,2,2.67,2.67,0,0,0,.58,1.82,1.9,1.9,0,0,0,.74.51,5,5,0,0,0,1.41.13Z" transform="translate(-2.25 -22)"/><path class="cls-1" d="M172,100.81h1.51v11.6H172Z" transform="translate(-2.25 -22)"/><path class="cls-1" d="M180.72,107.82v3.24q0,.39.27.39a1.82,1.82,0,0,0,.85-.4V112a5.15,5.15,0,0,1-.82.45,1.84,1.84,0,0,1-.66.12c-.64,0-1-.25-1.14-.76a3.29,3.29,0,0,1-2.05.75,1.81,1.81,0,0,1-1.86-1.86,1.85,1.85,0,0,1,.52-1.29,3.42,3.42,0,0,1,1.47-.9l1.93-.66v-.41a1.21,1.21,0,0,0-1.37-1.38,3.32,3.32,0,0,0-2.41,1.28v-1.65a3.14,3.14,0,0,1,2.53-1,2.94,2.94,0,0,1,2,.65,2.08,2.08,0,0,1,.44.55,2,2,0,0,1,.26.69A11.88,11.88,0,0,1,180.72,107.82Zm-1.49,3.08v-2.27l-1,.39a3.48,3.48,0,0,0-1.09.62,1.06,1.06,0,0,0-.32.78,1,1,0,0,0,.3.77,1.09,1.09,0,0,0,.79.3A1.88,1.88,0,0,0,179.23,110.9Z" transform="translate(-2.25 -22)"/><path class="cls-1" d="M187.51,104.77h1.64l-3.37,7.77h-.51l-3.46-7.77h1.66l2.06,4.7Z" transform="translate(-2.25 -22)"/><path class="cls-1" d="M196.7,108.72h-5.37a2.52,2.52,0,0,0,.74,1.75,2.41,2.41,0,0,0,1.74.64,4.55,4.55,0,0,0,2.76-.93v1.48a5.15,5.15,0,0,1-1.38.67,5.9,5.9,0,0,1-1.61.2,3.59,3.59,0,0,1-2-.53,3.85,3.85,0,0,1-1.25-1.4,4.36,4.36,0,0,1-.47-2,4.08,4.08,0,0,1,1-2.84,3.32,3.32,0,0,1,2.57-1.09,3,3,0,0,1,2.42,1.07,4.22,4.22,0,0,1,.9,2.84Zm-5.33-.9h3.84a2.15,2.15,0,0,0-.54-1.4,1.75,1.75,0,0,0-1.29-.49,1.9,1.9,0,0,0-1.34.49A2.46,2.46,0,0,0,191.37,107.82Z" transform="translate(-2.25 -22)"/><path class="cls-1" d="M203.69,100.81h1.52v11.6H202a3.54,3.54,0,0,1-2.7-1.07,4,4,0,0,1-1-2.87,3.81,3.81,0,0,1,1.06-2.78,3.6,3.6,0,0,1,2.7-1.08,4.81,4.81,0,0,1,1.66.32Zm0,10.3v-4.84a3.24,3.24,0,0,0-1.43-.35,2.26,2.26,0,0,0-1.79.74,2.82,2.82,0,0,0-.67,2,2.62,2.62,0,0,0,.58,1.82,1.83,1.83,0,0,0,.74.51,4.91,4.91,0,0,0,1.4.13Z" transform="translate(-2.25 -22)"/><path class="cls-1" d="M214,108.72h-5.37a2.52,2.52,0,0,0,.74,1.75,2.41,2.41,0,0,0,1.74.64,4.55,4.55,0,0,0,2.76-.93v1.48a5.46,5.46,0,0,1-1.38.67,5.9,5.9,0,0,1-1.61.2,3.59,3.59,0,0,1-2-.53,3.85,3.85,0,0,1-1.25-1.4,4.36,4.36,0,0,1-.47-2,4.08,4.08,0,0,1,1-2.84,3.32,3.32,0,0,1,2.56-1.09,3,3,0,0,1,2.43,1.07,4.22,4.22,0,0,1,.9,2.84Zm-5.34-.9h3.85a2.15,2.15,0,0,0-.54-1.4,1.76,1.76,0,0,0-1.3-.49,1.9,1.9,0,0,0-1.33.49A2.54,2.54,0,0,0,208.68,107.82Z" transform="translate(-2.25 -22)"/><path class="cls-1" d="M227.66,100.81h2.07l-5,5.51,6.27,6.09H228.7l-5.92-5.73v5.73h-1.66v-11.6h1.66v5.31Z" transform="translate(-2.25 -22)"/><path class="cls-1" d="M233.8,104.77v1a3.08,3.08,0,0,1,2.3-1.12,2.59,2.59,0,0,1,1.33.37,2.54,2.54,0,0,1,.94,1,4.9,4.9,0,0,1,.32,2v4.37h-1.52v-4.35a2.94,2.94,0,0,0-.35-1.67,1.37,1.37,0,0,0-1.2-.51A2.18,2.18,0,0,0,233.8,107v5.45h-1.54v-7.64Z" transform="translate(-2.25 -22)"/><path class="cls-1" d="M241.83,101.56a.9.9,0,0,1,.64.26.82.82,0,0,1,.26.63.89.89,0,0,1-.9.89.88.88,0,0,1-.62-1.51A.86.86,0,0,1,241.83,101.56Zm-.75,3.21h1.51v7.64h-1.51Z" transform="translate(-2.25 -22)"/><path class="cls-1" d="M249.71,104.77h1.64L248,112.54h-.51L244,104.77h1.65l2.06,4.7Z" transform="translate(-2.25 -22)"/><path class="cls-1" d="M258.9,108.72h-5.37a2.51,2.51,0,0,0,.73,1.75,2.44,2.44,0,0,0,1.75.64,4.57,4.57,0,0,0,2.76-.93v1.48a5.35,5.35,0,0,1-1.39.67,5.83,5.83,0,0,1-1.6.2,3.59,3.59,0,0,1-2-.53,3.85,3.85,0,0,1-1.25-1.4,4.25,4.25,0,0,1-.47-2,4.08,4.08,0,0,1,1-2.84,3.3,3.3,0,0,1,2.56-1.09,3,3,0,0,1,2.42,1.07,4.18,4.18,0,0,1,.91,2.84Zm-5.34-.9h3.85a2.15,2.15,0,0,0-.54-1.4,1.79,1.79,0,0,0-1.3-.49,1.88,1.88,0,0,0-1.33.49A2.47,2.47,0,0,0,253.56,107.82Z" transform="translate(-2.25 -22)"/><path class="cls-1" d="M273.13,112.41l-1.35-1.58c-.12.11-.32.28-.6.5l0,0a5.23,5.23,0,0,1-1.46.84,4.24,4.24,0,0,1-1.63.35,2.87,2.87,0,0,1-2-.78,2.53,2.53,0,0,1-.84-1.92,2.62,2.62,0,0,1,.41-1.46,5,5,0,0,1,1.34-1.34l0,0a9.28,9.28,0,0,1,1-.62,4,4,0,0,1-1.31-2.69,2.5,2.5,0,0,1,.8-1.92,3,3,0,0,1,2.09-.74,3,3,0,0,1,2.08.72,2.37,2.37,0,0,1,.81,1.85c0,1-.67,2-2,3l-.12.1,1.64,1.86a8,8,0,0,0,1.24-1.87h1.66a10.35,10.35,0,0,1-1.89,3l2.36,2.72Zm-2.75-2.4.37-.34-1.88-2.18-.74.52q-1.29.87-1.29,1.77a1.08,1.08,0,0,0,.42.84,1.55,1.55,0,0,0,1,.34,2.52,2.52,0,0,0,1.05-.26A4.15,4.15,0,0,0,270.38,110Zm-1.09-4.47.64-.45a1.77,1.77,0,0,0,.88-1.45,1.1,1.1,0,0,0-.37-.85,1.45,1.45,0,0,0-1.83,0,1,1,0,0,0-.36.79,2.14,2.14,0,0,0,.28,1A3.91,3.91,0,0,0,269.29,105.54Z" transform="translate(-2.25 -22)"/><path class="cls-1" d="M281.83,100.81h1.66V110.9h5.22v1.51h-6.88Z" transform="translate(-2.25 -22)"/><path class="cls-1" d="M296.91,104.62a2.63,2.63,0,0,1,2.11.93,3.7,3.7,0,0,1,.8,2.47v.23h-4.71a4.13,4.13,0,0,0,.36,1.72,2.25,2.25,0,0,0,.84.91,2.3,2.3,0,0,0,1.18.3,4,4,0,0,0,2.33-.92v1.48a4.67,4.67,0,0,1-1.24.63,4.46,4.46,0,0,1-1.36.17,3.57,3.57,0,0,1-1.51-.33,2.39,2.39,0,0,1-1-.85,4.66,4.66,0,0,1-2.87,1.18,2.1,2.1,0,0,1-1.48-.53,1.85,1.85,0,0,1-.57-1.41,1.81,1.81,0,0,1,.39-1.14,2.91,2.91,0,0,1,1.2-.86,7.24,7.24,0,0,1,1.22-.45l1.05-.32v-.24a1.85,1.85,0,0,0-.29-1.2,1.16,1.16,0,0,0-1-.36,3.27,3.27,0,0,0-2.43,1.27v-1.83a4.64,4.64,0,0,1,1.19-.66,4.07,4.07,0,0,1,1.26-.19,2.79,2.79,0,0,1,2.3,1,4.78,4.78,0,0,1,1.14-.76A2.72,2.72,0,0,1,296.91,104.62Zm-3.31,6.44v-2.47l-.82.33a4.08,4.08,0,0,0-1.19.64,1,1,0,0,0-.35.75,1.2,1.2,0,0,0,.31.85,1,1,0,0,0,.77.34,1.55,1.55,0,0,0,.55-.08A6.57,6.57,0,0,0,293.6,111.06Zm1.69-3.76h3a1.65,1.65,0,0,0-.47-1,1.36,1.36,0,0,0-1-.36C296.11,105.93,295.58,106.39,295.29,107.3Z" transform="translate(-2.25 -22)"/><path class="cls-1" d="M306.91,100.81h1.51v11.6H305.2a3.58,3.58,0,0,1-2.71-1.07,4,4,0,0,1-1-2.87,3.84,3.84,0,0,1,1.05-2.78,3.64,3.64,0,0,1,2.71-1.08,4.85,4.85,0,0,1,1.66.32Zm0,10.3v-4.84a3.24,3.24,0,0,0-1.43-.35,2.3,2.3,0,0,0-1.8.74,2.87,2.87,0,0,0-.67,2,2.67,2.67,0,0,0,.58,1.82,1.9,1.9,0,0,0,.74.51,5,5,0,0,0,1.41.13Z" transform="translate(-2.25 -22)"/><path class="cls-1" d="M317.24,108.72h-5.37a2.51,2.51,0,0,0,.73,1.75,2.44,2.44,0,0,0,1.75.64,4.54,4.54,0,0,0,2.75-.93v1.48a5.15,5.15,0,0,1-1.38.67,5.83,5.83,0,0,1-1.6.2,3.57,3.57,0,0,1-2-.53,3.76,3.76,0,0,1-1.25-1.4,4.25,4.25,0,0,1-.47-2,4.12,4.12,0,0,1,1-2.84,3.34,3.34,0,0,1,2.57-1.09,3,3,0,0,1,2.42,1.07,4.18,4.18,0,0,1,.91,2.84Zm-5.34-.9h3.84a2.05,2.05,0,0,0-.54-1.4,1.75,1.75,0,0,0-1.29-.49,1.88,1.88,0,0,0-1.33.49A2.47,2.47,0,0,0,311.9,107.82Z" transform="translate(-2.25 -22)"/><path class="cls-1" d="M320.75,104.77v1.75l.08-.13q1.1-1.77,2.19-1.77a2.66,2.66,0,0,1,1.78.87l-.79,1.32a2.27,2.27,0,0,0-1.46-.74,1.58,1.58,0,0,0-1.27.69,2.64,2.64,0,0,0-.53,1.66v4h-1.52v-7.64Z" transform="translate(-2.25 -22)"/><path class="cls-1" d="M326.08,100.81h1.51v5a2.93,2.93,0,0,1,2.35-1.16,2.54,2.54,0,0,1,1.37.38,2.33,2.33,0,0,1,.9,1.06,5.12,5.12,0,0,1,.3,2v4.35H331v-4.72a2.06,2.06,0,0,0-.42-1.35,1.31,1.31,0,0,0-1.08-.51,1.87,1.87,0,0,0-.94.25,4.7,4.7,0,0,0-1,.86v5.47h-1.51Z" transform="translate(-2.25 -22)"/><path class="cls-1" d="M339.67,107.82v3.24c0,.26.09.39.26.39a1.8,1.8,0,0,0,.86-.4V112a4.77,4.77,0,0,1-.83.45,1.78,1.78,0,0,1-.65.12c-.65,0-1-.25-1.14-.76a3.31,3.31,0,0,1-2.05.75,1.8,1.8,0,0,1-1.33-.53,1.76,1.76,0,0,1-.53-1.33,1.88,1.88,0,0,1,.51-1.29,3.52,3.52,0,0,1,1.48-.9l1.93-.66v-.41A1.22,1.22,0,0,0,336.8,106a3.32,3.32,0,0,0-2.4,1.28v-1.65a3.13,3.13,0,0,1,2.53-1,2.93,2.93,0,0,1,2,.65,2.15,2.15,0,0,1,.7,1.24A9.24,9.24,0,0,1,339.67,107.82Zm-1.49,3.08v-2.27l-1,.39a3.36,3.36,0,0,0-1.09.62,1,1,0,0,0-.32.78,1,1,0,0,0,.3.77,1.06,1.06,0,0,0,.79.3A1.9,1.9,0,0,0,338.18,110.9ZM337.43,100a1.47,1.47,0,0,1,1.1.46,1.49,1.49,0,0,1,.47,1.11,1.53,1.53,0,0,1-.47,1.12,1.49,1.49,0,0,1-1.11.47,1.55,1.55,0,0,1-1.11-.46,1.51,1.51,0,0,1-.46-1.11,1.59,1.59,0,0,1,1.58-1.59Zm0,.68a.87.87,0,0,0-.93.91,1,1,0,0,0,.28.68.94.94,0,0,0,.68.27,1,1,0,0,0,.68-.27.93.93,0,0,0,0-1.33A1,1,0,0,0,337.39,100.66Z" transform="translate(-2.25 -22)"/><path class="cls-1" d="M343.89,104.77v1a3.07,3.07,0,0,1,2.3-1.12,2.59,2.59,0,0,1,1.33.37,2.44,2.44,0,0,1,.93,1,4.9,4.9,0,0,1,.32,2v4.37h-1.51v-4.35a2.93,2.93,0,0,0-.36-1.67,1.33,1.33,0,0,0-1.19-.51,2.17,2.17,0,0,0-1.82,1.08v5.45h-1.54v-7.64Z" transform="translate(-2.25 -22)"/><path class="cls-1" d="M356.23,100.81h1.52v11.6h-3.23a3.54,3.54,0,0,1-2.7-1.07,4,4,0,0,1-1-2.87,3.81,3.81,0,0,1,1.06-2.78,3.62,3.62,0,0,1,2.7-1.08,4.81,4.81,0,0,1,1.66.32Zm0,10.3v-4.84a3.24,3.24,0,0,0-1.43-.35,2.26,2.26,0,0,0-1.79.74,2.82,2.82,0,0,0-.67,2,2.62,2.62,0,0,0,.58,1.82,1.83,1.83,0,0,0,.74.51,5,5,0,0,0,1.4.13Z" transform="translate(-2.25 -22)"/><path class="cls-1" d="M364.73,104.77h1.64L363,112.54h-.51L359,104.77h1.66l2.06,4.7Z" transform="translate(-2.25 -22)"/><path class="cls-1" d="M374.46,104.62a2.63,2.63,0,0,1,2.1.93,3.7,3.7,0,0,1,.8,2.47v.23h-4.71A4.13,4.13,0,0,0,373,110a2.16,2.16,0,0,0,2,1.21,4,4,0,0,0,2.32-.92v1.48a4.67,4.67,0,0,1-1.24.63,4.46,4.46,0,0,1-1.36.17,3.53,3.53,0,0,1-1.5-.33,2.37,2.37,0,0,1-1.06-.85,4.66,4.66,0,0,1-2.87,1.18,2.1,2.1,0,0,1-1.48-.53,1.85,1.85,0,0,1-.57-1.41,1.81,1.81,0,0,1,.39-1.14,2.91,2.91,0,0,1,1.2-.86,7.24,7.24,0,0,1,1.22-.45l1.05-.32v-.24a1.92,1.92,0,0,0-.28-1.2,1.19,1.19,0,0,0-1-.36,3.27,3.27,0,0,0-2.43,1.27v-1.83a4.81,4.81,0,0,1,1.19-.66,4.12,4.12,0,0,1,1.26-.19,2.78,2.78,0,0,1,2.3,1,4.78,4.78,0,0,1,1.14-.76A2.73,2.73,0,0,1,374.46,104.62Zm-3.32,6.44v-2.47l-.82.33a4.08,4.08,0,0,0-1.19.64,1,1,0,0,0-.35.75,1.17,1.17,0,0,0,.32.85,1,1,0,0,0,.77.34,1.53,1.53,0,0,0,.54-.08A5.8,5.8,0,0,0,371.14,111.06Zm1.7-3.76h3a1.65,1.65,0,0,0-.47-1,1.35,1.35,0,0,0-1-.36C373.65,105.93,373.12,106.39,372.84,107.3Z" transform="translate(-2.25 -22)"/><path class="cls-1" d="M381,104.77v1.75l.08-.13q1.09-1.77,2.19-1.77a2.7,2.7,0,0,1,1.79.87l-.8,1.32a2.24,2.24,0,0,0-1.46-.74,1.58,1.58,0,0,0-1.27.69,2.7,2.7,0,0,0-.53,1.66v4h-1.52v-7.64Z" transform="translate(-2.25 -22)"/><path class="cls-1" d="M386.34,100.81h1.51v11.6h-1.51Zm5,4h1.79l-3.26,3.74,3.93,3.9h-2l-3.82-3.9Z" transform="translate(-2.25 -22)"/></svg>